<svg id="Layer_1" xmlns="http://www.w3.org/2000/svg" viewBox="0 0 274.26 274.25"><style>.st0{fill:#fff}</style><path d="M274.26 137.12c0 75.73-61.39 137.13-137.13 137.13C61.4 274.25 0 212.85 0 137.12 0 61.39 61.4 0 137.13 0c75.74 0 137.13 61.39 137.13 137.12z"/><path class="st0" d="M137.13 263.78c-69.84 0-126.65-56.82-126.65-126.65 0-69.83 56.82-126.65 126.65-126.65 69.84 0 126.65 56.81 126.65 126.65 0 69.83-56.81 126.65-126.65 126.65zm0-252.3c-69.29 0-125.65 56.37-125.65 125.65 0 69.29 56.37 125.65 125.65 125.65 69.29 0 125.65-56.37 125.65-125.65 0-69.29-56.37-125.65-125.65-125.65z"/><path class="st0" d="M87.08 209.35h3.75c2.93 0 4.4 1.82 4.4 5.47 0 1.39-.19 2.43-.57 3.1-.38.67-1.06 1.18-2.02 1.53 1.11.44 1.87 1.01 2.27 1.7.42.68.62 1.71.62 3.09 0 3.77-1.61 5.65-4.84 5.65h-3.62v-20.54zm2.59 9.05c1.08 0 1.83-.25 2.24-.75.42-.52.63-1.44.63-2.75 0-2.22-.8-3.33-2.41-3.33H89.8c-.07 0-.12 0-.13.01v6.82zm0 9.12c1.14 0 1.93-.24 2.36-.73.44-.49.65-1.37.65-2.65 0-1.31-.23-2.23-.68-2.75-.45-.53-1.23-.8-2.34-.8v6.93zm11.62-18.17h2.15l4.4 20.54h-2.74l-.77-4h-4.07l-.78 4h-2.66l4.47-20.54zm2.65 14.39l-.61-3.27a90.8 90.8 0 0 1-1-7.13c-.12 1.23-.28 2.48-.48 3.74-.2 1.26-.43 2.61-.69 4.02l-.51 2.63h3.29zm5.53-14.39h3.64c1.51 0 2.63.36 3.36 1.08.93.93 1.4 2.35 1.4 4.27 0 1.47-.25 2.65-.74 3.54-.49.89-1.19 1.44-2.11 1.66l3.78 9.99H116l-3.76-10.05v10.05h-2.77v-20.54zm2.77 9.1c1.07 0 1.83-.25 2.27-.74.44-.5.67-1.33.67-2.51 0-.64-.05-1.18-.14-1.64-.09-.45-.24-.82-.44-1.1-.2-.28-.46-.49-.77-.62s-.69-.2-1.12-.2h-.47v6.81zm24.47 1.29l-2.68 2.68-2.68-2.68 2.68-2.68 2.68 2.68zm20.02-10.06v2.49c-.71-.35-1.3-.52-1.78-.52-.66 0-1.22.16-1.69.49-.47.32-.86.82-1.16 1.5-.31.67-.53 1.53-.68 2.56s-.22 2.25-.22 3.66c0 5.07 1.3 7.61 3.9 7.61.45 0 1-.14 1.64-.43v2.54c-.67.37-1.41.56-2.23.56-4.16 0-6.24-3.4-6.24-10.19 0-3.67.51-6.4 1.52-8.19 1.01-1.79 2.57-2.69 4.66-2.69.77 0 1.53.21 2.28.61zm6.02-.33h2.15l4.4 20.54h-2.74l-.77-4h-4.07l-.78 4h-2.66l4.47-20.54zm2.64 14.39l-.61-3.27a90.8 90.8 0 0 1-1-7.13c-.12 1.23-.28 2.48-.48 3.74-.2 1.26-.43 2.61-.69 4.02l-.51 2.63h3.29zm5.54-14.39h7.39v2.34h-4.63v6.49h4.18v2.34h-4.18v9.36h-2.77v-20.53zm9.52 0h7.35v2.34h-4.59v6.5h4.07v2.34h-4.07v7.01h4.59v2.34h-7.35v-20.53zm5.1-5.77l1.45 1.6-3.33 2.33-.98-1.13 2.86-2.8z"/><g><path class="st0" d="M79.91 87.52V60.59l4.49-4.49 4.49 4.49v49.45l-8.98 8.98H70.9l-8.98-8.98V92.05l-4.49-4.49 4.49-4.49V60.59l4.49-4.49 4.49 4.49v44.96l4.53 4.49 4.49-4.49V87.52zm26.94-26.93v53.94l-4.49 4.49-4.49-4.49V60.59l4.49-4.49 4.49 4.49zm40.51 53.94l-4.49 4.49H129.4c-5.62 0-9.56-2.25-11.81-6.73-1.13-2.26-1.69-4.5-1.69-6.73V60.59l4.49-4.49 4.49 4.49v44.97c0 .73.19 1.48.59 2.24.74 1.5 2.05 2.24 3.94 2.24h13.47l4.48 4.49zm35.95 0l-4.49 4.49h-13.47c-5.62 0-9.56-2.25-11.81-6.73-1.13-2.26-1.69-4.5-1.69-6.73V60.59l4.49-4.49 4.49 4.49v44.97c0 .73.2 1.48.59 2.24.74 1.5 2.05 2.24 3.94 2.24h13.47l4.48 4.49zm35.95-26.97l-4.49 4.49v22.48l-4.49 4.49-4.49-4.49V92.05h-9.02v22.48l-4.49 4.49-4.49-4.49V69.57c0-2.23.56-4.48 1.69-6.73 2.26-4.49 6.19-6.73 11.81-6.73s9.54 2.25 11.77 6.73c1.13 2.26 1.69 4.5 1.69 6.73v13.5l4.51 4.49zm-13.47-4.49v-13.5c0-.73-.2-1.48-.59-2.25-.74-1.49-2.04-2.24-3.9-2.24-1.89 0-3.2.75-3.94 2.24-.39.76-.59 1.51-.59 2.25v13.5h9.02zM87.66 133.42v53.94l-4.49 4.49-4.49-4.49v-53.94l4.49-4.49 4.49 4.49zm19.24 31.46v13.51c0 .74.2 1.48.59 2.25.74 1.5 2.05 2.24 3.94 2.24 1.86 0 3.17-.75 3.9-2.24.39-.76.59-1.51.59-2.25v-4.52l4.49-4.49 4.49 4.49v4.52c0 2.23-.57 4.48-1.7 6.73-2.23 4.49-6.16 6.73-11.77 6.73-5.62 0-9.55-2.25-11.81-6.73-1.13-2.26-1.69-4.5-1.69-6.73V142.4c0-2.24.56-4.48 1.69-6.73 2.25-4.49 6.19-6.73 11.81-6.73s9.54 2.24 11.77 6.73c1.13 2.26 1.7 4.5 1.7 6.73v22.48h-18zm0-8.98h9.01v-13.5c0-.74-.2-1.49-.59-2.25-.73-1.5-2.04-2.24-3.9-2.24-1.89 0-3.2.75-3.94 2.24-.39.76-.59 1.51-.59 2.25v13.5zm55.16 8.98v13.51c0 2.23-.57 4.48-1.69 6.73-2.24 4.49-6.16 6.73-11.78 6.73-5.62 0-9.56-2.25-11.81-6.73-1.13-2.26-1.69-4.5-1.69-6.73v-4.52l4.49-4.49 4.49 4.49v4.52c0 .74.2 1.48.59 2.25.74 1.5 2.05 2.24 3.94 2.24 1.86 0 3.17-.75 3.9-2.24.39-.76.59-1.51.59-2.25v-13.51h-18V142.4c0-2.24.57-4.48 1.69-6.73 2.26-4.49 6.19-6.73 11.81-6.73s9.54 2.24 11.78 6.73c1.13 2.26 1.69 4.5 1.69 6.73v4.52l-4.49 4.49-4.49-4.49v-4.52c0-.74-.2-1.49-.59-2.25-.74-1.5-2.04-2.24-3.9-2.24-1.89 0-3.2.75-3.94 2.24-.39.76-.59 1.51-.59 2.25v13.5h18v8.98zm34.74-35.95l4.49 4.49v4.49l-4.49 4.49-4.49-4.49h-4.49v49.45l-4.49 4.49-4.52-4.49V137.9h-4.49l-4.49 4.49-4.49-4.49v-4.49l4.49-4.49h26.97zm40.44 31.46l-4.49 4.49v22.48l-4.49 4.49-4.49-4.49v-22.48h-9.02v22.48l-4.49 4.49-4.49-4.49V142.4c0-2.24.56-4.48 1.69-6.73 2.26-4.49 6.19-6.73 11.81-6.73s9.54 2.24 11.77 6.73c1.13 2.26 1.69 4.5 1.69 6.73v13.5l4.51 4.49zm-13.47-4.49v-13.5c0-.74-.2-1.49-.59-2.25-.74-1.5-2.04-2.24-3.9-2.24-1.89 0-3.2.75-3.94 2.24-.39.76-.59 1.51-.59 2.25v13.5h9.02z"/><g><path class="st0" d="M55.02 137.9c-1.89 0-3.2.75-3.94 2.24-.39.76-.59 1.51-.59 2.25v13.5h18l4.49 4.49-4.49 4.49h-18v22.48l-4.49 4.5-4.49-4.49v-22.48l-4.49-4.49 4.49-4.49v-13.5c0-2.24.56-4.48 1.69-6.73 2.26-4.49 6.19-6.73 11.81-6.73"/><path class="st0" d="M54.57 128.93L69.87 128.93 74.35 133.42 74.35 137.9 69.87 142.4 65.37 137.9 54.96 137.9z"/></g></g></svg>