<svg id="Laag_1" data-name="Laag 1" xmlns="http://www.w3.org/2000/svg" viewBox="0 0 493.59 479.23"><defs><style>.cls-1{opacity:0.85;}.cls-2,.cls-3{fill:#fff;}.cls-3{font-size:72.08px;font-family:BodoniSvtyTwoOSITCTT-Bold, "Bodoni 72 Oldstyle";font-weight:700;}</style></defs><g class="cls-1"><path class="cls-2" d="M213.6,212.06c-.09-5.51-.19-11.06-.36-16.6,0,2.79,0,5.55-.11,8.38A72.26,72.26,0,0,0,213.6,212.06Z"/><path class="cls-2" d="M212.68,180.11c0-1-.09-2-.13-2.94l-.23-2.51C212.45,176.47,212.59,178.3,212.68,180.11Z"/><path class="cls-2" d="M210.51,151.29c.41,5.09.79,10,1.16,14.68C211.44,161.8,211.15,157,210.51,151.29Z"/><path class="cls-2" d="M211.9,174.28c0-1.78.14-2.66.41.26v.12c-.22-2.87-.4-5.72-.65-8.69C211.84,169.08,211.87,171.88,211.9,174.28Z"/><path class="cls-2" d="M211.9,174.28c0,1.72,0,4.44-.06,5.38C211.9,178.09,211.9,176.29,211.9,174.28Z"/><path class="cls-2" d="M208.09,167.22c-.32-2.89.69-2.27.07-8a320.37,320.37,0,0,0-5.47-37c-.36-1.38-.66-3-1-4.65-.17-.85-.34-1.72-.52-2.6s-.39-1.77-.58-2.67c-.36-1.79-.87-3.55-1.3-5.22s-1-3.18-1.55-4.49a103.11,103.11,0,0,0-5.47-11.42,27.8,27.8,0,0,0-3.83-5.4,10.59,10.59,0,0,0-4.29-2.94,6.8,6.8,0,0,0-3.47-.24,5.35,5.35,0,0,0-1.68.57c-.19.13,0,.09.7-.06a7.4,7.4,0,0,1,3.48.07c2.47.63,4.65,2.86,6.38,5.49a38.74,38.74,0,0,1,2.38,4.2c.74,1.48,1.49,2.92,2.12,4.4a119.61,119.61,0,0,1,6.23,17.36c3.21,11.57,5,23.2,6.27,36.78.61,5.52,1.06,11,1.55,16.49s.86,10.94,1.18,16.43c.68,11,1.19,22,1.49,33.46.12,6.4.09,12.37,0,18.39.16-7.86.23-15.9.23-24.82C211,199.64,209.46,185.5,208.09,167.22Z"/><path class="cls-2" d="M214.13,333.52a12,12,0,0,1-1.62-4.81,29.89,29.89,0,0,1-.3-3.19c.71-12.85.58-26.37.47-39.88-.18,2-.37,4-.55,6,0,7.73.23,8.63.51,1.77-.37,7.86-.61,15.5-.73,23.09,0,1.9,0,3.79-.07,5.68s-.07,3.78.06,5.67a14.77,14.77,0,0,0,1.3,5.48,7.72,7.72,0,0,0,1.67,2.26,4.34,4.34,0,0,0,2.5,1.21,6.41,6.41,0,0,1-1-.71,1.6,1.6,0,0,1-.38-.3,4.7,4.7,0,0,1-.5-.46A7.66,7.66,0,0,1,214.13,333.52Z"/><path class="cls-2" d="M223,332a2.52,2.52,0,0,1,0,2.08,4.33,4.33,0,0,1-1.41,1.63,6.21,6.21,0,0,1-4.17,1.06,2.28,2.28,0,0,0,.31.1,5.76,5.76,0,0,0,2.22-.29,5.94,5.94,0,0,0,1.95-1.05,3.55,3.55,0,0,0,1.25-1.76,2.86,2.86,0,0,0-.19-2.07Z"/><path class="cls-2" d="M195.49,92.06a42.44,42.44,0,0,0-3.56-6.26,17.28,17.28,0,0,0-5.17-5,10.56,10.56,0,0,0-7-1.37,14,14,0,0,0-6.45,3,17.63,17.63,0,0,0-4.51,5.41,33,33,0,0,0-2.67,6.46c-.68,2.22-1.22,4.46-1.76,6.69s-1.08,4.45-1.61,6.66c-4.27,17.74-8.08,35.19-11.61,52.48a65.3,65.3,0,0,1-1.33,8.16c-.69,2.67-1.32,5.38-1.91,8.07q-1.47,7.59-2.93,15.13c-.29,1.76-.6,3.55-.9,5.36l0,.14c-.41,2.87-.11,2,.35.32.46-1.95.91-3.73,1.32-5.24-.25,1-.89,3.54-1.32,5.24-.55,2.37-1.15,5-1.75,8.11-.77,4.63-1.61,9.48-2.54,14.46.86-5.58,1.73-10.36,2.54-14.46l1.43-8.57c.12-.82.24-1.63.36-2.48-2.18,11.56-4.26,23.07-6.31,34.59-.43,2.66-.84,5.2-1.17,7.27-1.31,8.39-2.59,16.74-3.91,21.83-.35,2-.71,4.12-1.07,6.2.1-.38.2-.8.29-1.18l-.48,2.31c-1.48,8.71-3,17.42-4.46,26.23A164.27,164.27,0,0,0,126,309.2l-.23,2.25c-.11,1.26-.21,2.76-.26,3.76l0,.19h1.72c-.17-2.38-.23-5.77-.21-9.72-.31,3.51-.61,6.79-.87,9.69h.45c0-1.33.07-2.42.13-3.5.24-3,.2-6.28.35-9.75a45.53,45.53,0,0,1,1.5-10.46,45.53,45.53,0,0,0-1.5,10.46c-.15,3.47-.11,6.79-.35,9.75-.06,1.08-.11,2.17-.13,3.5h-.45c.26-2.9.56-6.18.87-9.69.05-8.4.5-19.26,1.19-28a276.49,276.49,0,0,1-1.19,28c0,3.95,0,7.34.21,9.72h-1.72l0-.19c0-1,.15-2.5.26-3.76l.23-2.25a164.27,164.27,0,0,1,1.31-17.64,126.59,126.59,0,0,0-2,23.85h2.11l.88-29.07c.86-28.83,1.7-57.1,2.54-85.16q.6-21,1.18-42c.34-14,.57-28-.43-42.07-.49-7-1.27-14.06-2.46-21.06a149.94,149.94,0,0,0-5.12-20.72c-.56-1.7-1.09-3.41-1.76-5.07l-1-2.51c-.32-.83-.63-1.67-1-2.53a28.08,28.08,0,0,0-6.42-9.31,13.4,13.4,0,0,0-5.33-3,10.24,10.24,0,0,0-6.38.3,17.72,17.72,0,0,0-5,3.14c-.71.61-1.38,1.25-2.07,1.87-.34.32-.69.62-1,1l-1,1a53.5,53.5,0,0,0-6.82,8.76,69,69,0,0,0-5.18,9.8,120.8,120.8,0,0,0-6.73,21.05c-.84,3.59-1.57,7.2-2.25,10.82s-1.28,7.26-1.93,10.91l-1,5.48c-.28,1.84-.55,3.68-.83,5.52l-1.65,11.1q-.76,6-1.51,12.07c-.25,2-.53,4-.73,6s-.41,4-.61,6c-.39,4-.86,8-1.18,12s-.64,8-1,12c-1.12,15.92-2,31.72-2.3,47.41-.88,31.38-.36,62.29.4,92.86.48,17.42,1.11,34.6,1.78,51.59l7.48.1c3.8-51.19,3.65-101.16,2-151.36-.82-25.1-2-50.29-3.22-75.78Q67,137.34,66,118c-.62-12.94-1.27-26-2.14-39.25-.64-9.55-1.6-20.74-3.05-32.89-.37-3-.75-6.14-1.19-9.28s-.87-6.36-1.48-9.73c-.32-1.69-.67-3.4-1.1-5.14-.23-.87-.45-1.74-.72-2.62-.13-.44-.25-.88-.4-1.32l-.22-.66-.14-.43-.2-.57A47.14,47.14,0,0,0,51.2,7.48Q48.7,3.76,46.18,0L41.32,5c-.8.8-1.58,1.67-2.37,2.53L37.76,8.78c-.39.44-.75,1-1.13,1.44-.74,1-1.51,1.93-2.23,2.95L33,15.3c-.71,1.18-1.43,2.37-2.07,3.57a100.86,100.86,0,0,0-6.31,14.64C22.9,38.4,21.47,43.15,20,47.89s-2.75,9.44-4,14c-5,18.46-8.65,35.55-11.41,48.92C1.91,125.94.69,135.35.21,140.94s-.12,7.36.56,7.17c1.36-.39,4.07-8.65,4.46-10,5.16-17.43,8.7-33.22,13.63-53.08,2.48-9.93,5.31-20.87,9.21-33.42,2-6.25,4.06-13,6.9-19.87a73.63,73.63,0,0,1,5.14-10.18l.78-1.24.78-1.14c.3-.42.61-.79.91-1.17a19.52,19.52,0,0,1,2-2c.05-.08.08,0,.12.08l.11.18.21.38c.14.26.28.51.4.78A14,14,0,0,1,46,19a17.5,17.5,0,0,0-.69-1.69L45,16.55l-.2-.35-.1-.17,0-.08s0,0-.06,0C42.79,17.45,42,18.46,42,18.2s.75-1.68,2.76-3.85c.06-.12.11,0,.15,0l.15.21.31.42c.19.31.41.62.61,1a20.9,20.9,0,0,1,1.15,2.32c.18.44.35.84.53,1.38.26.73.49,1.49.73,2.27.45,1.57.86,3.25,1.23,5,.73,3.52,1.27,7.43,1.83,11.54S52.49,46.9,53,51.28c1.93,17.55,3,36.71,3.3,52,.27,17.77.94,37.46,1.89,58.3s2.08,42.87,3,65.41c1.89,45.07,2.76,92.27,0,135.87-.18,3.28-.41,6.59-.65,9.93s-.46,6.75-.69,10.2l11.12.15c-.67-15.94-1.48-32.83-2.1-51.13-.44-17-.79-33.76-.93-50.45s0-33.26.43-49.76c.94-33,3.21-65.73,8-98.3.3-2,.56-4.08.9-6.12l1-6.09c.71-4,1.34-8.16,2.12-12.17a145.39,145.39,0,0,1,6.13-23.3A59.49,59.49,0,0,1,98.05,66a50.58,50.58,0,0,1,4-3.89,8.81,8.81,0,0,1,3.17-2,5.42,5.42,0,0,0,.54-.08c.16,0,.33,0,.5,0l.26,0c.1,0,.19.07.29.09a4.45,4.45,0,0,1,.63.26,10.62,10.62,0,0,1,3,2.68,23.45,23.45,0,0,1,2.71,4.37c.77,1.51,1.48,3.58,2.23,5.44a122.37,122.37,0,0,1,3.77,11.73,162.88,162.88,0,0,1,4.52,24.67c1.83,16.87,1.61,34.29,1.14,52.11-1,37.86-.94,71.17-1.27,103.08-.32,17.06-1,35-1.53,50.72l8.81,0a107.89,107.89,0,0,1,.88-15.68c.88-7.18,2.15-14.27,3.23-21.16s2.15-13.57,3.19-20.09c2-13,4-25.43,5.88-37.55-2.29,13.52-4.17,25.23-6.09,37.34-1,6.06-1.94,12.21-3,18.74s-2.23,13.46-3.19,20.86c-.62,4.94-.76,6.53-.84,6a61.07,61.07,0,0,1,.36-7.14c.34-3.81,1-8.69,1.61-13.49s1.27-9.44,1.76-12.78c.73-5.74,3.29-14.52,4-20.26,2.09-12.39,3.62-23.84,5.71-37.17.81-5.74,1.64-4.91,2-7.77,3.05-18.13,4.54-32.27,7.12-43.74,1.89-8.72,3.69-16.56,5.49-24.19,1.1-4.84,2.23-9.63,3.33-14.75l2-9.79a14.6,14.6,0,0,1-2,4.18c1.12-4.73,3-11.33,4.14-16-1.18,4.71-3,11.31-4.14,16a14.6,14.6,0,0,0,2-4.18l1.95-9c.68-3.06,1.3-6.18,2.17-9.13a24.54,24.54,0,0,1,3.85-8.12,13.18,13.18,0,0,1,7.09-4.82,9,9,0,0,1,8,2,24.71,24.71,0,0,1,5.69,7.47,110.5,110.5,0,0,1,7.66,18l0-.35A111,111,0,0,0,192,87.91a23,23,0,0,0-3.33-4.37,11.71,11.71,0,0,0-4.51-2.9,9.92,9.92,0,0,0-5.41-.2,14,14,0,0,0-5.12,2.44,12.81,12.81,0,0,1,3.14-1.75c.69-.26,1-.28.84-.18l-.49.27c-.26.14-.61.32-1.05.58a16.47,16.47,0,0,0-3.37,2.64A18.39,18.39,0,0,0,169,88.85a17,17,0,0,1,6.51-7.41,12.59,12.59,0,0,1,4.67-1.67,10.91,10.91,0,0,1,2.49,0,9.86,9.86,0,0,1,2.4.62c3.14,1.21,5.42,3.85,7.14,6.59a34.77,34.77,0,0,1,2.27,4.31c.65,1.49,1.35,2.93,1.89,4.44l1.41,2.93c.71,1.65,1.62,3.62,2.12,5,1.32,4.08.88,4,.93,4.94.23.7.45,1.4.68,2.1l.61,2.14c.43,1.43.82,2.87,1.18,4.32a102.51,102.51,0,0,0-3.82-15c-.48-1.36-.94-2.68-1.37-3.89L196.79,95c-.35-.92-.71-1.64-.94-2.16Z"/><path class="cls-2" d="M142.57,205.7c.35-2,.78-4.55,1.23-7.22-1.82,9.66-3.56,19.33-5.3,29.05C139.85,222.46,141.19,214.09,142.57,205.7Z"/></g><g class="cls-1"><path class="cls-2" d="M411.42,305.17a24.26,24.26,0,0,1-5.17.29c.86.12,1.72.22,2.62.31A5.48,5.48,0,0,0,411.42,305.17Z"/><path class="cls-2" d="M401.66,304.6a6.92,6.92,0,0,1-.84-.3l-.74-.2C400.61,304.26,401.12,304.48,401.66,304.6Z"/><path class="cls-2" d="M394.3,300a13.4,13.4,0,0,0,3.41,3A31.19,31.19,0,0,1,394.3,300Z"/><path class="cls-2" d="M399.81,304.41c-.44-.38-.6-.63.24-.33l0,0-1.2-.53c-.4-.19-.77-.43-1.17-.65.39.27.74.57,1.1.8S399.5,304.18,399.81,304.41Z"/><path class="cls-2" d="M399.81,304.41a14.38,14.38,0,0,0,1.44.93C400.82,305.08,400.34,304.74,399.81,304.41Z"/><path class="cls-2" d="M396,306.17c-1-.51-.23-1.14-2-2.28a24,24,0,0,1-4.77-5,23.3,23.3,0,0,1-3-5.9,11,11,0,0,1-.69-3.59,22.45,22.45,0,0,0-.34-3.58c-1.1-4.65-1.65-16.38-1.89-9.48a66.76,66.76,0,0,0,.28,7.36,39.1,39.1,0,0,0,1.26,6.68,34.68,34.68,0,0,0,2.37,6.2,26.87,26.87,0,0,0,4,6A19.75,19.75,0,0,0,402,308.45a26.1,26.1,0,0,0,11.84-.78c2.15-.55,4.12-1.13,6.06-1.83a41.06,41.06,0,0,1-8.3,1.92c-2,.18-4.21.62-6.85.64A16.35,16.35,0,0,1,396,306.17Z"/><path class="cls-2" d="M443.76,284.09c-.24.4-.59,1-.89,1.53s-.56.91-.56.91c-3.15,2.87-6,6.13-9.33,9.1l1.83-.88c1.88-1.72,1.89-2.12.09-.78a37.83,37.83,0,0,0,10.37-10.85C444.87,283.23,444.66,283,443.76,284.09Z"/><path class="cls-2" d="M446.78,280.6c-.5.84-1,1.72-1.51,2.52l.13,0c.53-.84,1-1.73,1.46-2.56Z"/><path class="cls-2" d="M387.05,282c-.34-6.31.38-12.44.53-18.48a57.13,57.13,0,0,0-.33-9,17.78,17.78,0,0,0-3-8.36c-.35-.31-.63-.59-1-.86a5.78,5.78,0,0,1-1.07-1.05,6.13,6.13,0,0,0-.92-1.05,7.76,7.76,0,0,0-1.06-.93,16.1,16.1,0,0,0-2.32-1.23c-.4-.16-.79-.36-1.2-.5l-1.25-.38a15,15,0,0,0-1.8-.33h-.05c-1-.08-.7.12-.15.37a9.16,9.16,0,0,1,1.65.72c-.28-.2-1.11-.47-1.65-.72a14,14,0,0,0-2.7-.62l-2.4,0-2.48.08c.93-.11,1.8-.17,2.62-.19s1.57,0,2.26.13c1,.08,2,.08,2.9.25l.85.08a33.18,33.18,0,0,0-11.75-.32c-.89.14-1.74.31-2.42.49-2.76.66-5.41,1.55-7.21,1.66-.67.2-1.33.42-2,.65l.41-.06-.77.19c-2.76,1-5.71,2.3-7.77,4.84a15,15,0,0,0-2.07,5.72l-.35.7c-.19.39-.41.86-.54,1.18a22.77,22.77,0,0,1,0,3.34c.47-1.55,1-2.93,1.46-4.18a14.4,14.4,0,0,0,.72-3.1,4.12,4.12,0,0,1,1.8-2.89,4.12,4.12,0,0,0-1.8,2.89,14.4,14.4,0,0,1-.72,3.1c-.47,1.25-1,2.63-1.46,4.18a55,55,0,0,1-1.38,9.18,27.77,27.77,0,0,1,1.38-9.18,22.77,22.77,0,0,0,0-3.34c.13-.32.35-.79.54-1.18l.35-.7a15,15,0,0,1,2.07-5.72,17.75,17.75,0,0,0-3.29,8.44c-.47,2.94-.79,5.83-1.11,8.8a244.17,244.17,0,0,0-1.25,35.69l.31,8.29,2.79-7.83a87.45,87.45,0,0,0,5.11-28.44,61.33,61.33,0,0,0-.57-9.81,33.62,33.62,0,0,0-2.89-9.73,23.26,23.26,0,0,0-2.87-4.45,19.17,19.17,0,0,0-4.07-3.59,19.52,19.52,0,0,0-10.39-3A25.47,25.47,0,0,0,314.17,244a32,32,0,0,0-7.28,4.52l-.83.67c-.27.23-.51.49-.77.73l-1.52,1.47-1.39,1.58-.69.8-.63.83-1.25,1.66-1.13,1.73c-.79,1.14-1.39,2.36-2.09,3.53a79.19,79.19,0,0,0-3.4,7.32,140.76,140.76,0,0,0-5,14.9q-2.1,7.37-4.17,14.65-2.79,9.77-5.35,19.3l7.45,1.13c1.05-16.41,1.19-32.47.89-48.65q-.11-6.08-.31-12.18c-.06-2-.12-4.17-.31-6.32s-.43-4.31-.83-6.5a40.48,40.48,0,0,0-4.52-13.28,25,25,0,0,0-5.16-6.17,21.46,21.46,0,0,0-7.68-3.93,19.78,19.78,0,0,0-8.9-.19,24.48,24.48,0,0,0-8.79,3.82A43.83,43.83,0,0,0,238,239.26l-1.14,2-1,1.93c-.66,1.28-1.31,2.57-1.92,3.86-1.21,2.57-2.33,5.12-3.29,7.61a127.17,127.17,0,0,0-4.41,13.44,36,36,0,0,0-.8,10.53c.28,2,.84,2.65,1.48,2.64,1.28,0,2.84-2.64,3.06-3.07,2.93-5.72,4.7-10.81,7.29-17.31a107.09,107.09,0,0,1,5-10.82c2.19-4,4.77-8.52,9-12.45-1.41,1.36-2.3,2.33-2.86,2.85s-.74.59-.67.27a18.56,18.56,0,0,1,3.82-5.28,24,24,0,0,1,4.38-3.59,14.08,14.08,0,0,1,5.65-2.15,10.49,10.49,0,0,1,5.69.78,9.15,9.15,0,0,1,4,3.17c2.66,3.69,4.08,9.23,4.86,15.45.2,1.55.33,3.16.44,4.79,0,.83.09,1.66.13,2.49s.07,1.78.11,2.67c.15,3.58.3,7.24.45,10.93.61,14.78,1,30.29-.17,44.62-.09,1.2-.18,2.42-.27,3.67L287.72,320c1.62-5.93,3.14-12.29,5-19.26,1.55-5.37,3-10.82,4.48-16a125.09,125.09,0,0,1,5-14.86,61,61,0,0,1,3.27-6.63,38.1,38.1,0,0,1,4.07-5.69,24.9,24.9,0,0,1,4.95-4.38l.67-.47a8.06,8.06,0,0,1,.71-.39l1.42-.79a20.84,20.84,0,0,1,2.88-1.1c4-1.15,8.23-.82,11.07,1.09a11.87,11.87,0,0,1,3.76,4.15,22.61,22.61,0,0,1,2.3,6.28,42.8,42.8,0,0,1,.89,7.43c.09,2.65.05,5.33-.12,8a77.22,77.22,0,0,1-2.79,16.07c-.48,1.75-1,3.44-1.52,5.06L344.45,300c-.66-10-1.2-19.09-1.05-27.86.16-3.79.58-7.68,1.09-11.39.26-1.86.5-3.66.82-5.13a16.17,16.17,0,0,1,1.18-3.62,6.67,6.67,0,0,1,1.21-1.76,8.9,8.9,0,0,1,1.83-1.41,31.8,31.8,0,0,1,5.34-2.32,55.46,55.46,0,0,1,11.24-2.87,48.14,48.14,0,0,0-11.26,2.63,31.53,31.53,0,0,0-5.1,2.16,9.17,9.17,0,0,0-1.92,1.38,6.39,6.39,0,0,0-1.32,1.75c-.5,1-.67,1.39-.74,1.2a4.09,4.09,0,0,1,.32-1.73,6.41,6.41,0,0,1,1.74-2.61,12.31,12.31,0,0,1,3-2,9.43,9.43,0,0,1,3.11-.81,14.63,14.63,0,0,0,3.19-.63,59.29,59.29,0,0,1,11.34-2.42c1.76-.15,1.52.75,2.36.74a25.21,25.21,0,0,1,6.89,1,7.83,7.83,0,0,1,4.34,3.18,14,14,0,0,1,2.17,6.68c.2,1.47.27,3,.38,4.65.12,1,.22,2.09.29,3.18a2.74,2.74,0,0,1,1-1.46c0,1.57-.3,3.79-.42,5.38.12-1.59.39-3.81.42-5.38a2.74,2.74,0,0,0-1,1.46c.25,3.89.17,8.19.24,12.63A60,60,0,0,0,386.52,288l.07-.13a40.52,40.52,0,0,1,0-15.25c-.31,2.24-.57,1.95-.5-.62.2-.65.39-1.3.59-1.94,0,4.49.05,8.92-.31,13.21,0,0,.09.48.22,1.07s.29,1.3.43,1.76c.07,1.43-.19,1.42-.39,1.77a25.87,25.87,0,0,0,.78,2.93c-.07-1.1-.34-3.29-.36-5.22S387.05,282,387.05,282Z"/><path class="cls-2" d="M370.66,239.57c.69.06,1.54.08,2.44.21a33.87,33.87,0,0,0-9.85-.11C365,239.91,367.8,239.5,370.66,239.57Z"/></g><text class="cls-3" transform="translate(2.95 459.63)">MEDIAMEIDEN</text></svg>