<svg id="Laag_1" xmlns="http://www.w3.org/2000/svg" viewBox="0 0 2414.3 1430.7"><style>.st0{fill:#663265}.st1,.st2,.st3{fill:none;stroke:#663265;stroke-width:75.1;stroke-miterlimit:10}.st2,.st3{stroke-width:33.8}.st3{stroke-width:32.48}</style><path class="st0" d="M1339.1 387c-23.2 12.5-124.9 142.4-137.3 158.3-12.3-16-113.6-146.2-136.8-158.7-12.8-6.9 34.2 26.3 49.2 77.1 14 47.6-4.3 112.8-4.3 112.8 8.2-14.5 11.1 0 11.1 0l79.5 195.8 1 2.5 1-2.5 80-195.5s2.9-14.5 11.1 0c0 0-20.1-58.1-6.8-101.8 16.5-54 66-95.3 52.3-88z"/><circle class="st0" cx="973" cy="508.6" r="66.7"/><circle class="st0" cx="1430.9" cy="509.3" r="66.7"/><ellipse transform="rotate(-45.001 972.975 508.639)" class="st1" cx="973" cy="508.6" rx="153" ry="153"/><circle class="st1" cx="1430.9" cy="509.3" r="153"/><path class="st0" d="M772.8 435.6L793.6 398 140.3 92.1 89.8 205z"/><path transform="rotate(-64.729 184.161 98.91)" class="st0" d="M172.5 74.4H195.7V123.4H172.5z"/><path transform="rotate(-64.729 236.473 123.61)" class="st0" d="M224.8 99.1H248V148.1H224.8z"/><path transform="rotate(-64.729 289.568 148.673)" class="st0" d="M277.9 124.2H301.09999999999997V173.2H277.9z"/><path transform="rotate(-64.729 673.373 329.423)" class="st0" d="M661.7 304.9H684.9000000000001V353.9H661.7z"/><path transform="rotate(-64.729 723.593 353.13)" class="st0" d="M712 328.7H735.2V377.7H712z"/><path transform="rotate(-64.729 775.104 376.421)" class="st0" d="M763.5 351.9H786.7V400.9H763.5z"/><path class="st0" d="M632.7 322.7L315.9 174 325.9 153 642.3 302.4z"/><path class="st0" d="M1640.7 435.6L1619.9 398 2273.2 92.1 2323.7 205z"/><path transform="rotate(-25.271 2229.219 98.87)" class="st0" d="M2204.8 87.2H2253.8V110.4H2204.8z"/><path transform="rotate(-25.271 2176.91 123.576)" class="st0" d="M2152.5 111.9H2201.5V135.1H2152.5z"/><path transform="rotate(-25.271 2123.825 148.639)" class="st0" d="M2099.4 137H2148.4V160.2H2099.4z"/><path transform="rotate(-25.271 1740.047 329.392)" class="st0" d="M1715.6 317.8H1764.6V341H1715.6z"/><path transform="rotate(-25.271 1689.832 353.09)" class="st0" d="M1665.4 341.5H1714.4V364.7H1665.4z"/><path transform="rotate(-25.271 1638.325 376.38)" class="st0" d="M1613.9 364.8H1662.9V388H1613.9z"/><path class="st0" d="M1780.8 322.7L2097.5 174 2087.6 153 1771.2 302.4z"/><path class="st2" d="M1032.6 826l14.4 1.7 15.2-15.7-17.1-16.2-16.2 21 3.7 9.2c0 .1-106.9 107.6-240.3.1s-259.8-14.6-277.9 0"/><path class="st3" d="M1064.3 806.7L1076.2 792.6 1062.3 780 1051.2 794.3"/><path class="st2" d="M1379.3 826l-14.4 1.7-15.2-15.7 17.1-16.2 16.2 20.9-3.7 9.3s106.9 107.5 240.3 0 259.8-14.6 277.9 0"/><path class="st3" d="M1347.6 806.7L1335.8 792.6 1349.6 780 1360.7 794.3"/><path class="st0" d="M1692.3 0L1202.1 0 711.9 0 711.9 66.2 912.9 66.2 869.3 257.5 1202.1 305.9 1534.8 257.5 1491.2 66.2 1692.3 66.2z"/><path class="st0" d="M80.9 1339.3c-22.4 0-41.6-8-57.4-23.9s-23.7-35.1-23.6-57.5c.1-22.3 8.2-41.3 24.3-57 15.9-15.6 35.1-23.4 57.5-23.4h125.7c7.7 0 14 6.1 14 13.8v42.5c0 7.7-6.1 14-13.8 14H80.9c-2.9-.1-5.7 1.2-7.6 3.4-2.1 2-3.2 4.9-3 7.8.1 2.8 1.4 5.4 3.5 7.1 2 1.9 4.7 2.9 7.4 2.8h73.5c22.4 0 41.6 8 57.4 23.9 15.8 15.9 23.7 35.1 23.6 57.6-.1 22.2-8.2 41.1-24.3 56.8s-35.2 23.6-57.6 23.6H28.2c-3.7.1-7.3-1.4-9.9-4.1-2.7-2.6-4.3-6.2-4.2-9.9v-42.4c-.1-3.8 1.5-7.4 4.2-9.9 2.6-2.7 6.2-4.1 9.9-4.1h126.6c2.9 0 5.7-1.2 7.6-3.4 2.1-2 3.1-4.9 2.8-7.8-.1-2.7-1.3-5.3-3.4-7.1-2-1.9-4.7-2.9-7.4-2.8H80.9zm241.7 56.2c-1.5-.1-2.8.9-3.2 2.3l-9.4 23.9c-2.4 6-6.7 9-13.1 9h-45.3c-7.7 0-14-6.2-14.1-13.9 0-1.8.3-3.5 1-5.2l88-225.2c2.2-5.9 6.6-8.8 13.1-8.8h61.5c6.5 0 10.9 3 13.1 9l85.5 225.1c1.8 4.3 1.3 9.3-1.4 13.1-2.6 3.9-7 6.1-11.7 6h-45.1c-6.5 0-10.9-3-13.1-9l-9-23.9c-.5-1.4-1.8-2.4-3.4-2.3l-93.4-.1zm50.7-118.7c-.5-1.4-1.8-2.4-3.4-2.3-1.4-.1-2.7.8-3.2 2.1l-17.2 43.7c-.4 1.1-.2 2.3.5 3.2.6 1 1.7 1.7 2.8 1.6h33.6c1.1 0 2.2-.5 2.8-1.4.7-1 .9-2.2.5-3.4l-16.4-43.5zm354.3 83.6c7.7 0 14 6.1 14 13.8v42.5c0 3.7-1.4 7.3-4.1 9.9-2.6 2.7-6.2 4.1-9.9 4.1h-190c-7.7 0-14-6.1-14-13.8v-225.4c-.1-3.7 1.4-7.3 4.1-9.9 2.6-2.6 6.2-4.1 9.9-4.1H580c7.7 0 14 6.1 14 13.8v165.6c0 2.4 1.2 3.5 3.5 3.5h130.1zm149.3 61.3c-2.4 6-6.7 9-13.1 9h-61.6c-6.5 0-10.9-3-13.1-9l-85.5-225.1c-1.8-4.3-1.2-9.3 1.6-13.1 2.5-3.9 6.9-6.2 11.5-6h45.1c6.5 0 10.9 3 13.1 9l55.1 144.9c.5 1.4 1.8 2.4 3.4 2.3 1.5 0 2.8-.9 3.2-2.3l56.7-145c2.4-5.9 6.7-8.8 13.1-8.8h45.3c7.7 0 14 6.2 14.1 13.9 0 1.8-.3 3.5-1 5.2l-87.9 225zm315.7-61.3c7.7 0 14 6.1 14 13.8v42.5c0 3.7-1.4 7.3-4.1 9.9-2.6 2.7-6.2 4.1-9.9 4.1h-190c-7.7 0-14-6.1-14-13.8v-225.4c-.1-3.7 1.4-7.3 4.1-9.9 2.6-2.6 6.2-4.1 9.9-4.1h190c7.7 0 14 6.1 14 13.8v42.5c0 7.7-6.1 14-13.8 14h-130.3c-2.4 0-3.5 1.2-3.5 3.5v21.1c0 2.4 1.2 3.5 3.5 3.5h83.2c3.7-.1 7.3 1.4 9.9 4.1 2.8 2.6 4.3 6.3 4.2 10.1v28c0 3.8-1.5 7.5-4.2 10.1-2.6 2.7-6.2 4.1-9.9 4.1h-83.2c-2.4 0-3.5 1.2-3.5 3.5v21.1c0 2.4 1.2 3.5 3.5 3.5h130.1zm201.9-48.2c-.8-1.4-2.5-1.9-3.9-1.2-1.5.3-2.6 1.7-2.5 3.2v102.5c0 3.7-1.4 7.3-4.1 9.9-2.6 2.7-6.2 4.1-9.9 4.1h-42.3c-7.7 0-14-6.1-14-13.8v-225.4c-.1-3.7 1.4-7.3 4.1-9.9 2.6-2.6 6.2-4.1 9.9-4.1h46.9c4.6-.1 9 2.1 11.5 6l58.3 83.2c.6 1 1.8 1.6 3 1.6s2.2-.6 2.8-1.6l58.3-83.2c2.5-3.9 6.9-6.1 11.5-6h46.9c3.7-.1 7.3 1.4 9.9 4.1 2.8 2.6 4.3 6.2 4.2 9.9v225.2c-.1 7.8-6.4 14-14.2 14h-42.1c-7.8 0-14.1-6.2-14.2-14v-102.5c-.1-2-1.7-3.5-3.7-3.4-1.1 0-2.1.6-2.7 1.4l-54 77.2c-.6.9-1.7 1.4-2.8 1.4-1.2.1-2.3-.5-3-1.4l-53.9-77.2zm324.2 118.5c-30.9.1-57.4-10.8-79.3-32.8-22-21.8-32.9-48.2-32.9-79.2v-127.3c-.1-3.7 1.4-7.3 4.1-9.9 2.6-2.6 6.2-4.1 9.9-4.1h42.3c7.7 0 14 6.1 14 13.8v127.5c-.2 22.8 18.2 41.5 41 41.6 11.4.1 22.3-4.5 30.1-12.8 7.8-7.8 12-18.4 11.9-29.4v-126.8c-.1-3.8 1.5-7.4 4.2-9.9 2.6-2.7 6.2-4.1 9.9-4.1h42.2c7.7-.1 13.9 6.1 14 13.8v126.5c0 31-10.9 57.6-32.6 79.7s-47.9 33.3-78.8 33.4zm209.4-111.4c-.8-1.4-2.4-2-3.9-1.4-1.5.4-2.5 1.8-2.5 3.4v95.4c0 3.7-1.4 7.3-4.1 9.9-2.6 2.7-6.2 4.1-9.9 4.1h-42.3c-7.7 0-14-6.1-14-13.8v-225.4c-.1-3.7 1.4-7.3 4.1-9.9 2.6-2.6 6.2-4.1 9.9-4.1h42c4.6-.2 9 2.1 11.5 6l73.8 105.4c.8 1.4 2.4 2 3.9 1.4 1.5-.4 2.5-1.8 2.5-3.4v-95.4c-.1-3.7 1.4-7.3 4.1-9.9 2.7-2.7 6.3-4.1 10.1-4.1h42.1c7.7 0 14 6.1 14 13.8v225.4c0 3.7-1.4 7.3-4.1 9.9-2.6 2.7-6.2 4.1-9.9 4.1h-42c-4.6.1-9-2.1-11.5-6l-73.8-105.4zm394.7-15.2c0 34.8-12.4 64.6-37.2 89.4-24.7 24.8-54.5 37.2-89.4 37.2h-91.6c-7.7 0-14-6.1-14-13.8v-225.4c-.1-3.7 1.4-7.3 4.1-9.9 2.6-2.6 6.2-4.1 9.9-4.1h90.5c34.8 0 64.8 12.4 90 37.2s37.7 54.6 37.7 89.4zm-158.3-56.3c-2.4 0-3.5 1.2-3.5 3.5v105.5c0 2.4 1.2 3.5 3.5 3.5h31.7c31.1-.2 56.2-25.6 56-56.7-.2-31.1-25.6-56.2-56.7-56l-31 .2zm235.8-70.3c7.7 0 14 6.1 14 13.8v225.4c0 3.7-1.4 7.3-4.1 9.9-2.6 2.7-6.2 4.1-9.9 4.1H2358c-7.7 0-14-6.1-14-13.8v-225.4c-.1-3.7 1.4-7.3 4.1-9.9 2.6-2.6 6.2-4.1 9.9-4.1h42.3z"/></svg>