<svg id="Laag_1" data-name="Laag 1" xmlns="http://www.w3.org/2000/svg" viewBox="0 0 2414.32 1430.72"><defs><style>.cls-1{fill:#fff}.cls-2,.cls-3,.cls-4{fill:none;stroke:#fff;stroke-miterlimit:10}.cls-2{stroke-width:75.1px}.cls-3{stroke-width:33.8px}.cls-4{stroke-width:32.48px}</style></defs><path class="cls-1" d="M1339.06 387c-23.25 12.48-124.89 142.4-137.29 158.31-12.35-15.95-113.62-146.15-136.84-158.7-12.77-6.9 34.24 26.3 49.22 77.11 14 47.61-4.3 112.84-4.3 112.84 8.23-14.52 11.09 0 11.09 0l79.51 195.77 1 2.46 1-2.46 80-195.54s2.91-14.53 11.1 0c0 0-20.09-58.08-6.77-101.82 16.51-53.97 65.97-95.3 52.28-87.97z"/><circle class="cls-1" cx="972.97" cy="508.63" r="66.73"/><circle class="cls-1" cx="1430.86" cy="509.27" r="66.73"/><circle class="cls-2" cx="972.98" cy="508.63" r="152.96" transform="rotate(-45 972.972 508.632)"/><circle class="cls-2" cx="1430.87" cy="509.27" r="152.96"/><path class="cls-1" d="M772.79 435.55L793.58 397.99 140.3 92.14 89.82 204.98 772.79 435.55z"/><path class="cls-1" transform="rotate(-64.73 184.157 98.908)" d="M172.53 74.43H195.78V123.39000000000001H172.53z"/><path class="cls-1" transform="rotate(-64.73 236.473 123.616)" d="M224.85 99.13H248.1V148.09H224.85z"/><path class="cls-1" transform="rotate(-64.73 289.56 148.678)" d="M277.94 124.2H301.19V173.16H277.94z"/><path class="cls-1" transform="rotate(-64.73 673.362 329.418)" d="M661.73 304.94H684.98V353.9H661.73z"/><path class="cls-1" transform="rotate(-64.73 723.58 353.127)" d="M711.95 328.65H735.2V377.60999999999996H711.95z"/><path class="cls-1" transform="rotate(-64.73 775.09 376.417)" d="M763.46 351.94H786.71V400.9H763.46z"/><path class="cls-1" d="M632.71 322.68L315.94 173.99 325.87 152.96 642.31 302.35 632.71 322.68z"/><path class="cls-1" d="M1640.68 435.55L1619.89 397.99 2273.18 92.14 2323.66 204.98 1640.68 435.55z"/><path class="cls-1" transform="rotate(-25.27 2229.292 98.855)" d="M2204.82 87.24H2253.78V110.49H2204.82z"/><path class="cls-1" transform="rotate(-25.27 2176.997 123.558)" d="M2152.51 111.94H2201.4700000000003V135.19H2152.51z"/><path class="cls-1" transform="rotate(-25.27 2123.896 148.62)" d="M2099.42 137.01H2148.38V160.26H2099.42z"/><path class="cls-1" transform="rotate(-25.27 1740.115 329.406)" d="M1715.64 317.77H1764.6000000000001V341.02H1715.64z"/><path class="cls-1" transform="rotate(-25.27 1689.897 353.1)" d="M1665.42 341.47H1714.38V364.72H1665.42z"/><path class="cls-1" transform="rotate(-25.27 1638.388 376.387)" d="M1613.91 364.76H1662.8700000000001V388.01H1613.91z"/><path class="cls-1" d="M1780.76 322.68L2097.53 173.99 2087.6 152.96 1771.16 302.35 1780.76 322.68z"/><path class="cls-3" d="M1032.61 826l14.44 1.71 15.21-15.71-17.11-16.16-16.15 21 3.62 9.22s-106.91 107.53-240.28 0-259.77-14.62-277.9 0"/><path class="cls-4" d="M1064.34 806.68L1076.16 792.59 1062.31 780 1051.23 794.29"/><path class="cls-3" d="M1379.32 826l-14.44 1.71-15.21-15.71 17.11-16.16 16.16 20.92-3.62 9.22s106.91 107.53 240.28 0 259.77-14.62 277.9 0"/><path class="cls-4" d="M1347.58 806.68L1335.76 792.59 1349.62 780 1360.7 794.29"/><path class="cls-1" d="M1692.26 0L1202.09 0 711.93 0 711.93 66.16 912.94 66.16 869.35 257.49 1202.09 305.93 1534.84 257.49 1491.25 66.16 1692.26 66.16 1692.26 0z"/><path class="cls-1" d="M80.93 1339.34q-33.65 0-57.37-23.91T0 1257.89q.17-33.47 24.26-57 23.91-23.37 57.55-23.37h125.73a13.91 13.91 0 0 1 14 13.82v42.5a13.91 13.91 0 0 1-13.82 14H80.93a9.76 9.76 0 0 0-7.61 3.36 10 10 0 0 0-3 7.79 9.42 9.42 0 0 0 3.54 7.08 10.41 10.41 0 0 0 7.44 2.83h73.49q33.65 0 57.37 23.91t23.55 57.55q-.18 33.29-24.26 56.84t-57.55 23.55H28.16a13.49 13.49 0 0 1-9.92-4.07 13.59 13.59 0 0 1-4.25-9.92v-42.36a13.23 13.23 0 0 1 4.25-9.92 13.49 13.49 0 0 1 9.92-4.07h126.61a10.13 10.13 0 0 0 7.61-3.36 9.49 9.49 0 0 0 2.83-7.79 9.66 9.66 0 0 0-3.36-7.08 10.87 10.87 0 0 0-7.44-2.83zm241.71 56.14a3.2 3.2 0 0 0-3.19 2.3l-9.39 23.91q-3.54 9-13.1 9h-45.33a14 14 0 0 1-13.1-19.12l88-225.25q3.36-8.85 13.1-8.85h61.45q9.74 0 13.1 9l85.53 225.07a13.69 13.69 0 0 1-1.42 13.1 13.55 13.55 0 0 1-11.69 6h-45.14q-9.73 0-13.1-9l-9-23.91a3.33 3.33 0 0 0-3.36-2.3zm50.65-118.64a3.33 3.33 0 0 0-3.36-2.3 3.19 3.19 0 0 0-3.19 2.13l-17.18 43.74a3.42 3.42 0 0 0 .53 3.19 3 3 0 0 0 2.83 1.59h33.65a3.35 3.35 0 0 0 2.83-1.42 3.83 3.83 0 0 0 .53-3.36zm354.34 83.57a13.91 13.91 0 0 1 14 13.82v42.5a13.87 13.87 0 0 1-4.07 9.92 13.49 13.49 0 0 1-9.92 4.07h-190a13.91 13.91 0 0 1-14-13.82v-225.42a13.49 13.49 0 0 1 4.07-9.92 13.87 13.87 0 0 1 9.92-4.07H580a13.91 13.91 0 0 1 14 13.82v165.57q0 3.54 3.54 3.54zm149.27 61.27q-3.54 9-13.1 9h-61.62q-9.73 0-13.1-9l-85.53-225.07a13.42 13.42 0 0 1 1.59-13.1 13.12 13.12 0 0 1 11.51-6h45.15q9.74 0 13.1 9l55.1 144.86a3.33 3.33 0 0 0 3.36 2.3 3.22 3.22 0 0 0 3.19-2.3l56.67-145q3.54-8.85 13.1-8.85h45.33a14 14 0 0 1 13.1 19.12zm315.74-61.27a13.91 13.91 0 0 1 14 13.82v42.5a13.87 13.87 0 0 1-4.07 9.92 13.49 13.49 0 0 1-9.92 4.07h-190a13.91 13.91 0 0 1-14-13.82v-225.42a13.49 13.49 0 0 1 4.07-9.92 13.87 13.87 0 0 1 9.92-4.07h190a13.91 13.91 0 0 1 14 13.82v42.5a13.91 13.91 0 0 1-13.82 14h-130.34q-3.54 0-3.54 3.54v21.07q0 3.54 3.54 3.54h83.23a13.49 13.49 0 0 1 9.92 4.07 13.76 13.76 0 0 1 4.25 10.09v28a13.76 13.76 0 0 1-4.25 10.09 13.49 13.49 0 0 1-9.92 4.07h-83.23q-3.54 0-3.54 3.54v21.07q0 3.54 3.54 3.54zm201.87-48.16a3 3 0 0 0-3.9-1.24 3.06 3.06 0 0 0-2.48 3.19v102.53a13.87 13.87 0 0 1-4.07 9.92 13.49 13.49 0 0 1-9.92 4.07h-42.32a13.91 13.91 0 0 1-14-13.82v-225.42a13.49 13.49 0 0 1 4.07-9.92 13.87 13.87 0 0 1 9.92-4.07h46.93a13.38 13.38 0 0 1 11.51 6l58.26 83.23a3.41 3.41 0 0 0 3 1.59 3.25 3.25 0 0 0 2.83-1.59l58.26-83.23a13.38 13.38 0 0 1 11.51-6H1571a13.49 13.49 0 0 1 9.92 4.07 13.23 13.23 0 0 1 4.25 9.92v225.25a14.21 14.21 0 0 1-14.17 14h-42.1a14.21 14.21 0 0 1-14.17-14V1314.2a3.55 3.55 0 0 0-6.38-2l-54 77.21a3.38 3.38 0 0 1-2.83 1.42 3.53 3.53 0 0 1-3-1.42zm324.23 118.47q-46.4.16-79.33-32.76-32.94-32.76-32.94-79.16v-127.32a13.49 13.49 0 0 1 4.07-9.92 13.87 13.87 0 0 1 9.92-4.07h42.32a13.91 13.91 0 0 1 14 13.82v127.49a41.33 41.33 0 0 0 71.19 28.86 40.68 40.68 0 0 0 11.86-29.4v-126.78a13.23 13.23 0 0 1 4.25-9.92 13.49 13.49 0 0 1 9.92-4.07h42.15a13.9 13.9 0 0 1 14 13.8v126.46q0 46.57-32.58 79.69t-78.83 33.28zm209.31-111.39a3.22 3.22 0 0 0-3.9-1.42 3.33 3.33 0 0 0-2.48 3.36v95.45a13.87 13.87 0 0 1-4.07 9.92 13.49 13.49 0 0 1-9.92 4.07h-42.32a13.91 13.91 0 0 1-14-13.82v-225.41a13.49 13.49 0 0 1 4.07-9.92 13.87 13.87 0 0 1 9.92-4.07h42a13.12 13.12 0 0 1 11.51 6l73.84 105.36a3.22 3.22 0 0 0 3.9 1.42 3.33 3.33 0 0 0 2.48-3.36v-95.45a13.49 13.49 0 0 1 4.07-9.92 14.1 14.1 0 0 1 10.09-4.07h42.14a13.91 13.91 0 0 1 14 13.82v225.43a13.87 13.87 0 0 1-4.07 9.92 13.49 13.49 0 0 1-9.92 4.07h-42a13.37 13.37 0 0 1-11.51-6zm394.72-15.23q0 52.25-37.19 89.43-37 37.18-89.43 37.19h-91.55a13.91 13.91 0 0 1-14-13.82v-225.42a13.49 13.49 0 0 1 4.07-9.92 13.87 13.87 0 0 1 9.92-4.07h90.49q52.23 0 90 37.19t37.69 89.42zm-158.31-56.31q-3.54 0-3.54 3.54v105.54q0 3.54 3.54 3.54h31.7a56.31 56.31 0 1 0-.69-112.62zm235.87-70.3a13.91 13.91 0 0 1 14 13.82v225.43a13.87 13.87 0 0 1-4.07 9.92 13.49 13.49 0 0 1-9.92 4.07H2358a13.91 13.91 0 0 1-14-13.82v-225.43a13.49 13.49 0 0 1 4.07-9.92 13.87 13.87 0 0 1 9.92-4.07z"/></svg>