<?xml version="1.0" encoding="utf-8"?>
<!-- Generator: Adobe Illustrator 23.0.1, SVG Export Plug-In . SVG Version: 6.00 Build 0)  -->
<svg version="1.1" id="Laag_1" xmlns="http://www.w3.org/2000/svg" xmlns:xlink="http://www.w3.org/1999/xlink" x="0px" y="0px"
	 viewBox="0 0 2414.3 1430.7" style="enable-background:new 0 0 2414.3 1430.7;" xml:space="preserve">
<style type="text/css">
	.st0{fill:#663265;}
	.st1{fill:none;stroke:#663265;stroke-width:75.1;stroke-miterlimit:10;}
	.st2{fill:none;stroke:#663265;stroke-width:33.8;stroke-miterlimit:10;}
	.st3{fill:none;stroke:#663265;stroke-width:32.48;stroke-miterlimit:10;}
</style>
<title>logo</title>
<path class="st0" d="M1339.1,387c-23.2,12.5-124.9,142.4-137.3,158.3c-12.3-16-113.6-146.2-136.8-158.7
	c-12.8-6.9,34.2,26.3,49.2,77.1c14,47.6-4.3,112.8-4.3,112.8c8.2-14.5,11.1,0,11.1,0l79.5,195.8l1,2.5l1-2.5l80-195.5
	c0,0,2.9-14.5,11.1,0c0,0-20.1-58.1-6.8-101.8C1303.3,421,1352.8,379.7,1339.1,387z"/>
<circle class="st0" cx="973" cy="508.6" r="66.7"/>
<circle class="st0" cx="1430.9" cy="509.3" r="66.7"/>
<ellipse transform="matrix(0.7071 -0.7071 0.7071 0.7071 -74.674 836.9711)" class="st1" cx="973" cy="508.6" rx="153" ry="153"/>
<circle class="st1" cx="1430.9" cy="509.3" r="153"/>
<polygon class="st0" points="772.8,435.6 793.6,398 140.3,92.1 89.8,205 "/>
<rect x="172.5" y="74.4" transform="matrix(0.4269 -0.9043 0.9043 0.4269 16.0982 223.2223)" class="st0" width="23.2" height="49"/>
<rect x="224.8" y="99.1" transform="matrix(0.4269 -0.9043 0.9043 0.4269 23.7414 284.6838)" class="st0" width="23.2" height="49"/>
<rect x="277.9" y="124.2" transform="matrix(0.4269 -0.9043 0.9043 0.4269 31.5065 347.0609)" class="st0" width="23.2" height="49"/>
<rect x="661.7" y="304.9" transform="matrix(0.4269 -0.9043 0.9043 0.4269 88.0127 797.7235)" class="st0" width="23.2" height="49"/>
<rect x="712" y="328.7" transform="matrix(0.4269 -0.9043 0.9043 0.4269 95.3556 856.724)" class="st0" width="23.2" height="49"/>
<rect x="763.5" y="351.9" transform="matrix(0.4269 -0.9043 0.9043 0.4269 103.8143 916.6536)" class="st0" width="23.2" height="49"/>
<polygon class="st0" points="632.7,322.7 315.9,174 325.9,153 642.3,302.4 "/>
<polygon class="st0" points="1640.7,435.6 1619.9,398 2273.2,92.1 2323.7,205 "/>
<rect x="2204.8" y="87.2" transform="matrix(0.9043 -0.4269 0.4269 0.9043 171.1285 961.1155)" class="st0" width="49" height="23.2"/>
<rect x="2152.5" y="111.9" transform="matrix(0.9043 -0.4269 0.4269 0.9043 155.5758 941.1493)" class="st0" width="49" height="23.2"/>
<rect x="2099.4" y="137" transform="matrix(0.9043 -0.4269 0.4269 0.9043 139.7961 920.8855)" class="st0" width="49" height="23.2"/>
<rect x="1715.6" y="317.8" transform="matrix(0.9043 -0.4269 0.4269 0.9043 25.9052 774.3489)" class="st0" width="49" height="23.2"/>
<rect x="1665.4" y="341.5" transform="matrix(0.9043 -0.4269 0.4269 0.9043 10.9824 755.18)" class="st0" width="49" height="23.2"/>
<rect x="1613.9" y="364.8" transform="matrix(0.9043 -0.4269 0.4269 0.9043 -3.8888 735.4205)" class="st0" width="49" height="23.2"/>
<polygon class="st0" points="1780.8,322.7 2097.5,174 2087.6,153 1771.2,302.4 "/>
<path class="st2" d="M1032.6,826l14.4,1.7l15.2-15.7l-17.1-16.2l-16.2,21L1032.6,826c0,0.1-106.9,107.6-240.3,0.1
	s-259.8-14.6-277.9,0"/>
<polyline class="st3" points="1064.3,806.7 1076.2,792.6 1062.3,780 1051.2,794.3 "/>
<path class="st2" d="M1379.3,826l-14.4,1.7l-15.2-15.7l17.1-16.2l16.2,20.9L1379.3,826c0,0,106.9,107.5,240.3,0s259.8-14.6,277.9,0"
	/>
<polyline class="st3" points="1347.6,806.7 1335.8,792.6 1349.6,780 1360.7,794.3 "/>
<polygon class="st0" points="1692.3,0 1202.1,0 711.9,0 711.9,66.2 912.9,66.2 869.3,257.5 1202.1,305.9 1534.8,257.5 1491.2,66.2 
	1692.3,66.2 "/>
<path class="st0" d="M80.9,1339.3c-22.4,0-41.6-8-57.4-23.9s-23.7-35.1-23.6-57.5c0.1-22.3,8.2-41.3,24.3-57
	c15.9-15.6,35.1-23.4,57.5-23.4h125.7c7.7,0,14,6.1,14,13.8c0,0,0,0,0,0v42.5c0,7.7-6.1,14-13.8,14c0,0,0,0,0,0H80.9
	c-2.9-0.1-5.7,1.2-7.6,3.4c-2.1,2-3.2,4.9-3,7.8c0.1,2.8,1.4,5.4,3.5,7.1c2,1.9,4.7,2.9,7.4,2.8h73.5c22.4,0,41.6,8,57.4,23.9
	c15.8,15.9,23.7,35.1,23.6,57.6c-0.1,22.2-8.2,41.1-24.3,56.8s-35.2,23.6-57.6,23.6H28.2c-3.7,0.1-7.3-1.4-9.9-4.1
	c-2.7-2.6-4.3-6.2-4.2-9.9v-42.4c-0.1-3.8,1.5-7.4,4.2-9.9c2.6-2.7,6.2-4.1,9.9-4.1h126.6c2.9,0,5.7-1.2,7.6-3.4
	c2.1-2,3.1-4.9,2.8-7.8c-0.1-2.7-1.3-5.3-3.4-7.1c-2-1.9-4.7-2.9-7.4-2.8L80.9,1339.3z"/>
<path class="st0" d="M322.6,1395.5c-1.5-0.1-2.8,0.9-3.2,2.3l-9.4,23.9c-2.4,6-6.7,9-13.1,9h-45.3c-7.7,0-14-6.2-14.1-13.9
	c0-1.8,0.3-3.5,1-5.2l88-225.2c2.2-5.9,6.6-8.8,13.1-8.8h61.5c6.5,0,10.9,3,13.1,9l85.5,225.1c1.8,4.3,1.3,9.3-1.4,13.1
	c-2.6,3.9-7,6.1-11.7,6h-45.1c-6.5,0-10.9-3-13.1-9l-9-23.9c-0.5-1.4-1.8-2.4-3.4-2.3L322.6,1395.5z M373.3,1276.8
	c-0.5-1.4-1.8-2.4-3.4-2.3c-1.4-0.1-2.7,0.8-3.2,2.1l-17.2,43.7c-0.4,1.1-0.2,2.3,0.5,3.2c0.6,1,1.7,1.7,2.8,1.6h33.6
	c1.1,0,2.2-0.5,2.8-1.4c0.7-1,0.9-2.2,0.5-3.4L373.3,1276.8z"/>
<path class="st0" d="M727.6,1360.4c7.7,0,14,6.1,14,13.8c0,0,0,0,0,0v42.5c0,3.7-1.4,7.3-4.1,9.9c-2.6,2.7-6.2,4.1-9.9,4.1h-190
	c-7.7,0-14-6.1-14-13.8c0,0,0,0,0,0v-225.4c-0.1-3.7,1.4-7.3,4.1-9.9c2.6-2.6,6.2-4.1,9.9-4.1H580c7.7,0,14,6.1,14,13.8c0,0,0,0,0,0
	v165.6c0,2.4,1.2,3.5,3.5,3.5L727.6,1360.4z"/>
<path class="st0" d="M876.9,1421.7c-2.4,6-6.7,9-13.1,9h-61.6c-6.5,0-10.9-3-13.1-9l-85.5-225.1c-1.8-4.3-1.2-9.3,1.6-13.1
	c2.5-3.9,6.9-6.2,11.5-6h45.1c6.5,0,10.9,3,13.1,9l55.1,144.9c0.5,1.4,1.8,2.4,3.4,2.3c1.5,0,2.8-0.9,3.2-2.3l56.7-145
	c2.4-5.9,6.7-8.8,13.1-8.8h45.3c7.7,0,14,6.2,14.1,13.9c0,1.8-0.3,3.5-1,5.2L876.9,1421.7z"/>
<path class="st0" d="M1192.6,1360.4c7.7,0,14,6.1,14,13.8c0,0,0,0,0,0v42.5c0,3.7-1.4,7.3-4.1,9.9c-2.6,2.7-6.2,4.1-9.9,4.1h-190
	c-7.7,0-14-6.1-14-13.8c0,0,0,0,0,0v-225.4c-0.1-3.7,1.4-7.3,4.1-9.9c2.6-2.6,6.2-4.1,9.9-4.1h190c7.7,0,14,6.1,14,13.8c0,0,0,0,0,0
	v42.5c0,7.7-6.1,14-13.8,14c0,0,0,0,0,0h-130.3c-2.4,0-3.5,1.2-3.5,3.5v21.1c0,2.4,1.2,3.5,3.5,3.5h83.2c3.7-0.1,7.3,1.4,9.9,4.1
	c2.8,2.6,4.3,6.3,4.2,10.1v28c0,3.8-1.5,7.5-4.2,10.1c-2.6,2.7-6.2,4.1-9.9,4.1h-83.2c-2.4,0-3.5,1.2-3.5,3.5v21.1
	c0,2.4,1.2,3.5,3.5,3.5L1192.6,1360.4z"/>
<path class="st0" d="M1394.5,1312.2c-0.8-1.4-2.5-1.9-3.9-1.2c-1.5,0.3-2.6,1.7-2.5,3.2v102.5c0,3.7-1.4,7.3-4.1,9.9
	c-2.6,2.7-6.2,4.1-9.9,4.1h-42.3c-7.7,0-14-6.1-14-13.8c0,0,0,0,0,0v-225.4c-0.1-3.7,1.4-7.3,4.1-9.9c2.6-2.6,6.2-4.1,9.9-4.1h46.9
	c4.6-0.1,9,2.1,11.5,6l58.3,83.2c0.6,1,1.8,1.6,3,1.6c1.2,0,2.2-0.6,2.8-1.6l58.3-83.2c2.5-3.9,6.9-6.1,11.5-6h46.9
	c3.7-0.1,7.3,1.4,9.9,4.1c2.8,2.6,4.3,6.2,4.2,9.9v225.2c-0.1,7.8-6.4,14-14.2,14h-42.1c-7.8,0-14.1-6.2-14.2-14v-102.5
	c-0.1-2-1.7-3.5-3.7-3.4c-1.1,0-2.1,0.6-2.7,1.4l-54,77.2c-0.6,0.9-1.7,1.4-2.8,1.4c-1.2,0.1-2.3-0.5-3-1.4L1394.5,1312.2z"/>
<path class="st0" d="M1718.7,1430.7c-30.9,0.1-57.4-10.8-79.3-32.8c-22-21.8-32.9-48.2-32.9-79.2v-127.3c-0.1-3.7,1.4-7.3,4.1-9.9
	c2.6-2.6,6.2-4.1,9.9-4.1h42.3c7.7,0,14,6.1,14,13.8c0,0,0,0,0,0v127.5c-0.2,22.8,18.2,41.5,41,41.6c11.4,0.1,22.3-4.5,30.1-12.8
	c7.8-7.8,12-18.4,11.9-29.4v-126.8c-0.1-3.8,1.5-7.4,4.2-9.9c2.6-2.7,6.2-4.1,9.9-4.1h42.2c7.7-0.1,13.9,6.1,14,13.8c0,0,0,0,0,0
	v126.5c0,31-10.9,57.6-32.6,79.7S1749.6,1430.6,1718.7,1430.7z"/>
<path class="st0" d="M1928.1,1319.3c-0.8-1.4-2.4-2-3.9-1.4c-1.5,0.4-2.5,1.8-2.5,3.4v95.4c0,3.7-1.4,7.3-4.1,9.9
	c-2.6,2.7-6.2,4.1-9.9,4.1h-42.3c-7.7,0-14-6.1-14-13.8c0,0,0,0,0,0v-225.4c-0.1-3.7,1.4-7.3,4.1-9.9c2.6-2.6,6.2-4.1,9.9-4.1h42
	c4.6-0.2,9,2.1,11.5,6l73.8,105.4c0.8,1.4,2.4,2,3.9,1.4c1.5-0.4,2.5-1.8,2.5-3.4v-95.4c-0.1-3.7,1.4-7.3,4.1-9.9
	c2.7-2.7,6.3-4.1,10.1-4.1h42.1c7.7,0,14,6.1,14,13.8c0,0,0,0,0,0v225.4c0,3.7-1.4,7.3-4.1,9.9c-2.6,2.7-6.2,4.1-9.9,4.1h-42
	c-4.6,0.1-9-2.1-11.5-6L1928.1,1319.3z"/>
<path class="st0" d="M2322.8,1304.1c0,34.8-12.4,64.6-37.2,89.4c-24.7,24.8-54.5,37.2-89.4,37.2h-91.6c-7.7,0-14-6.1-14-13.8
	c0,0,0,0,0,0v-225.4c-0.1-3.7,1.4-7.3,4.1-9.9c2.6-2.6,6.2-4.1,9.9-4.1h90.5c34.8,0,64.8,12.4,90,37.2S2322.8,1269.3,2322.8,1304.1z
	 M2164.5,1247.8c-2.4,0-3.5,1.2-3.5,3.5v105.5c0,2.4,1.2,3.5,3.5,3.5h31.7c31.1-0.2,56.2-25.6,56-56.7c-0.2-31.1-25.6-56.2-56.7-56
	l0,0L2164.5,1247.8z"/>
<path class="st0" d="M2400.3,1177.5c7.7,0,14,6.1,14,13.8c0,0,0,0,0,0v225.4c0,3.7-1.4,7.3-4.1,9.9c-2.6,2.7-6.2,4.1-9.9,4.1H2358
	c-7.7,0-14-6.1-14-13.8c0,0,0,0,0,0v-225.4c-0.1-3.7,1.4-7.3,4.1-9.9c2.6-2.6,6.2-4.1,9.9-4.1H2400.3z"/>
</svg>
