<svg id="Laag_1" data-name="Laag 1" xmlns="http://www.w3.org/2000/svg" viewBox="0 0 2414.32 1430.72"><defs><style>.cls-1{fill:#fff;}.cls-2,.cls-3,.cls-4{fill:none;stroke:#fff;stroke-miterlimit:10;}.cls-2{stroke-width:75.1px;}.cls-3{stroke-width:33.8px;}.cls-4{stroke-width:32.48px;}</style></defs><title>logo</title><path class="cls-1" d="M1339.06,387c-23.25,12.48-124.89,142.4-137.29,158.31-12.35-15.95-113.62-146.15-136.84-158.7-12.77-6.9,34.24,26.3,49.22,77.11,14,47.61-4.3,112.84-4.3,112.84,8.23-14.52,11.09,0,11.09,0l79.51,195.77,1,2.46,1-2.46,80-195.54s2.91-14.53,11.1,0c0,0-20.09-58.08-6.77-101.82C1303.29,421,1352.75,379.67,1339.06,387Z"/><circle class="cls-1" cx="972.97" cy="508.63" r="66.73"/><circle class="cls-1" cx="1430.86" cy="509.27" r="66.73"/><circle class="cls-2" cx="972.98" cy="508.63" r="152.96" transform="translate(-74.68 836.97) rotate(-45)"/><circle class="cls-2" cx="1430.87" cy="509.27" r="152.96"/><polygon class="cls-1" points="772.79 435.55 793.58 397.99 140.3 92.14 89.82 204.98 772.79 435.55"/><rect class="cls-1" x="172.53" y="74.43" width="23.25" height="48.96" transform="translate(16.1 223.22) rotate(-64.73)"/><rect class="cls-1" x="224.85" y="99.13" width="23.25" height="48.96" transform="translate(23.74 284.69) rotate(-64.73)"/><rect class="cls-1" x="277.94" y="124.2" width="23.25" height="48.96" transform="translate(31.5 347.06) rotate(-64.73)"/><rect class="cls-1" x="661.73" y="304.94" width="23.25" height="48.96" transform="translate(88.02 797.72) rotate(-64.73)"/><rect class="cls-1" x="711.95" y="328.65" width="23.25" height="48.96" transform="translate(95.36 856.72) rotate(-64.73)"/><rect class="cls-1" x="763.46" y="351.94" width="23.25" height="48.96" transform="translate(103.82 916.65) rotate(-64.73)"/><polygon class="cls-1" points="632.71 322.68 315.94 173.99 325.87 152.96 642.31 302.35 632.71 322.68"/><polygon class="cls-1" points="1640.68 435.55 1619.89 397.99 2273.18 92.14 2323.66 204.98 1640.68 435.55"/><rect class="cls-1" x="2204.82" y="87.24" width="48.96" height="23.25" transform="translate(171.13 961.11) rotate(-25.27)"/><rect class="cls-1" x="2152.51" y="111.94" width="48.96" height="23.25" transform="translate(155.58 941.15) rotate(-25.27)"/><rect class="cls-1" x="2099.42" y="137.01" width="48.96" height="23.25" transform="translate(139.8 920.88) rotate(-25.27)"/><rect class="cls-1" x="1715.64" y="317.77" width="48.96" height="23.25" transform="translate(25.9 774.35) rotate(-25.27)"/><rect class="cls-1" x="1665.42" y="341.47" width="48.96" height="23.25" transform="translate(10.98 755.18) rotate(-25.27)"/><rect class="cls-1" x="1613.91" y="364.76" width="48.96" height="23.25" transform="translate(-3.89 735.42) rotate(-25.27)"/><polygon class="cls-1" points="1780.76 322.68 2097.53 173.99 2087.6 152.96 1771.16 302.35 1780.76 322.68"/><path class="cls-3" d="M1032.61,826l14.44,1.71L1062.26,812l-17.11-16.16-16.15,21,3.62,9.22s-106.91,107.53-240.28,0-259.77-14.62-277.9,0"/><polyline class="cls-4" points="1064.34 806.68 1076.16 792.59 1062.31 780 1051.23 794.29"/><path class="cls-3" d="M1379.32,826l-14.44,1.71L1349.67,812l17.11-16.16,16.16,20.92-3.62,9.22s106.91,107.53,240.28,0,259.77-14.62,277.9,0"/><polyline class="cls-4" points="1347.58 806.68 1335.76 792.59 1349.62 780 1360.7 794.29"/><polygon class="cls-1" points="1692.26 0 1202.09 0 711.93 0 711.93 66.16 912.94 66.16 869.35 257.49 1202.09 305.93 1534.84 257.49 1491.25 66.16 1692.26 66.16 1692.26 0"/><path class="cls-1" d="M80.93,1339.34q-33.65,0-57.37-23.91T0,1257.89q.17-33.47,24.26-57,23.91-23.37,57.55-23.37H207.54a13.91,13.91,0,0,1,14,13.82v42.5a13.91,13.91,0,0,1-13.82,14H80.93a9.76,9.76,0,0,0-7.61,3.36,10,10,0,0,0-3,7.79,9.42,9.42,0,0,0,3.54,7.08,10.41,10.41,0,0,0,7.44,2.83h73.49q33.65,0,57.37,23.91t23.55,57.55q-.18,33.29-24.26,56.84t-57.55,23.55H28.16a13.49,13.49,0,0,1-9.92-4.07,13.59,13.59,0,0,1-4.25-9.92V1374.4a13.23,13.23,0,0,1,4.25-9.92,13.49,13.49,0,0,1,9.92-4.07H154.77a10.13,10.13,0,0,0,7.61-3.36,9.49,9.49,0,0,0,2.83-7.79,9.66,9.66,0,0,0-3.36-7.08,10.87,10.87,0,0,0-7.44-2.83Z"/><path class="cls-1" d="M322.64,1395.48a3.2,3.2,0,0,0-3.19,2.3l-9.39,23.91q-3.54,9-13.1,9H251.63a14,14,0,0,1-13.1-19.12l88-225.25q3.36-8.85,13.1-8.85h61.45q9.74,0,13.1,9l85.53,225.07a13.69,13.69,0,0,1-1.42,13.1,13.55,13.55,0,0,1-11.69,6H441.46q-9.73,0-13.1-9l-9-23.91a3.33,3.33,0,0,0-3.36-2.3Zm50.65-118.64a3.33,3.33,0,0,0-3.36-2.3,3.19,3.19,0,0,0-3.19,2.13l-17.18,43.74a3.42,3.42,0,0,0,.53,3.19,3,3,0,0,0,2.83,1.59h33.65a3.35,3.35,0,0,0,2.83-1.42,3.83,3.83,0,0,0,.53-3.36Z"/><path class="cls-1" d="M727.63,1360.41a13.91,13.91,0,0,1,14,13.82v42.5a13.87,13.87,0,0,1-4.07,9.92,13.49,13.49,0,0,1-9.92,4.07h-190a13.91,13.91,0,0,1-14-13.82V1191.48a13.49,13.49,0,0,1,4.07-9.92,13.87,13.87,0,0,1,9.92-4.07H580a13.91,13.91,0,0,1,14,13.82v165.57q0,3.54,3.54,3.54Z"/><path class="cls-1" d="M876.9,1421.68q-3.54,9-13.1,9H802.18q-9.73,0-13.1-9l-85.53-225.07a13.42,13.42,0,0,1,1.59-13.1,13.12,13.12,0,0,1,11.51-6H761.8q9.74,0,13.1,9L830,1331.37a3.33,3.33,0,0,0,3.36,2.3,3.22,3.22,0,0,0,3.19-2.3l56.67-145q3.54-8.85,13.1-8.85h45.33a14,14,0,0,1,13.1,19.12Z"/><path class="cls-1" d="M1192.64,1360.41a13.91,13.91,0,0,1,14,13.82v42.5a13.87,13.87,0,0,1-4.07,9.92,13.49,13.49,0,0,1-9.92,4.07h-190a13.91,13.91,0,0,1-14-13.82V1191.48a13.49,13.49,0,0,1,4.07-9.92,13.87,13.87,0,0,1,9.92-4.07h190a13.91,13.91,0,0,1,14,13.82v42.5a13.91,13.91,0,0,1-13.82,14H1062.48q-3.54,0-3.54,3.54v21.07q0,3.54,3.54,3.54h83.23a13.49,13.49,0,0,1,9.92,4.07,13.76,13.76,0,0,1,4.25,10.09v28a13.76,13.76,0,0,1-4.25,10.09,13.49,13.49,0,0,1-9.92,4.07h-83.23q-3.54,0-3.54,3.54v21.07q0,3.54,3.54,3.54Z"/><path class="cls-1" d="M1394.51,1312.25a3,3,0,0,0-3.9-1.24,3.06,3.06,0,0,0-2.48,3.19v102.53a13.87,13.87,0,0,1-4.07,9.92,13.49,13.49,0,0,1-9.92,4.07h-42.32a13.91,13.91,0,0,1-14-13.82V1191.48a13.49,13.49,0,0,1,4.07-9.92,13.87,13.87,0,0,1,9.92-4.07h46.93a13.38,13.38,0,0,1,11.51,6l58.26,83.23a3.41,3.41,0,0,0,3,1.59,3.25,3.25,0,0,0,2.83-1.59l58.26-83.23a13.38,13.38,0,0,1,11.51-6H1571a13.49,13.49,0,0,1,9.92,4.07,13.23,13.23,0,0,1,4.25,9.92v225.25a14.21,14.21,0,0,1-14.17,14H1528.9a14.21,14.21,0,0,1-14.17-14V1314.2a3.55,3.55,0,0,0-6.38-2l-54,77.21a3.38,3.38,0,0,1-2.83,1.42,3.53,3.53,0,0,1-3-1.42Z"/><path class="cls-1" d="M1718.74,1430.72q-46.4.16-79.33-32.76-32.94-32.76-32.94-79.16V1191.48a13.49,13.49,0,0,1,4.07-9.92,13.87,13.87,0,0,1,9.92-4.07h42.32a13.91,13.91,0,0,1,14,13.82V1318.8a41.33,41.33,0,0,0,71.19,28.86,40.68,40.68,0,0,0,11.86-29.4V1191.48a13.23,13.23,0,0,1,4.25-9.92,13.49,13.49,0,0,1,9.92-4.07h42.15a13.9,13.9,0,0,1,14,13.8v126.46q0,46.57-32.58,79.69T1718.74,1430.72Z"/><path class="cls-1" d="M1928.05,1319.33a3.22,3.22,0,0,0-3.9-1.42,3.33,3.33,0,0,0-2.48,3.36v95.45a13.87,13.87,0,0,1-4.07,9.92,13.49,13.49,0,0,1-9.92,4.07h-42.32a13.91,13.91,0,0,1-14-13.82V1191.48a13.49,13.49,0,0,1,4.07-9.92,13.87,13.87,0,0,1,9.92-4.07h42a13.12,13.12,0,0,1,11.51,6l73.84,105.36a3.22,3.22,0,0,0,3.9,1.42,3.33,3.33,0,0,0,2.48-3.36v-95.45a13.49,13.49,0,0,1,4.07-9.92,14.1,14.1,0,0,1,10.09-4.07h42.14a13.91,13.91,0,0,1,14,13.82v225.43a13.87,13.87,0,0,1-4.07,9.92,13.49,13.49,0,0,1-9.92,4.07h-42a13.37,13.37,0,0,1-11.51-6Z"/><path class="cls-1" d="M2322.77,1304.1q0,52.25-37.19,89.43-37,37.18-89.43,37.19H2104.6a13.91,13.91,0,0,1-14-13.82V1191.48a13.49,13.49,0,0,1,4.07-9.92,13.87,13.87,0,0,1,9.92-4.07h90.49q52.23,0,90,37.19T2322.77,1304.1Zm-158.31-56.31q-3.54,0-3.54,3.54v105.54q0,3.54,3.54,3.54h31.7a56.31,56.31,0,1,0-.69-112.62Z"/><path class="cls-1" d="M2400.33,1177.49a13.91,13.91,0,0,1,14,13.82v225.43a13.87,13.87,0,0,1-4.07,9.92,13.49,13.49,0,0,1-9.92,4.07H2358a13.91,13.91,0,0,1-14-13.82V1191.48a13.49,13.49,0,0,1,4.07-9.92,13.87,13.87,0,0,1,9.92-4.07Z"/></svg>