<?xml version="1.0" encoding="utf-8"?>
<!-- Generator: Adobe Illustrator 23.0.1, SVG Export Plug-In . SVG Version: 6.00 Build 0)  -->
<svg version="1.1" id="Laag_1" xmlns="http://www.w3.org/2000/svg" xmlns:xlink="http://www.w3.org/1999/xlink" x="0px" y="0px"
	 viewBox="0 0 946 927.06" style="enable-background:new 0 0 946 927.06;" xml:space="preserve">
<style type="text/css">
	.st0{fill:#F1901A;}
</style>
<g>
	<g>
		<path class="st0" d="M485.86,580.26c14.45,0.06,27.12-12.43,27.18-26.78c0.07-17.28-11.74-30.34-27.51-30.41
			c-15.4-0.08-27.33,12.54-27.31,28.87C458.24,567,471.13,580.2,485.86,580.26z"/>
		<path class="st0" d="M393.72,535.83c-15.33,0.43-26.54,11.98-26.95,27.93c-0.43,16.74,11.99,29.63,26.86,30.1
			c14.97,0.48,26.59-12.17,26.64-28.22C421.31,549.3,406.2,535.48,393.72,535.83z"/>
		<path class="st0" d="M576.9,567.88c15.48,0.54,27.07-14.62,27.01-28.71c-0.07-15.45-13.29-28.71-28.5-28.61
			c-14.17,0.1-26.41,13.27-26.33,28.34C549.18,555.24,561.38,567.96,576.9,567.88z"/>
		<path class="st0" d="M479.75,57.23c-231.36,0-418.92,187.55-418.92,418.92s187.55,418.92,418.92,418.92
			S898.66,707.5,898.66,476.14S711.11,57.23,479.75,57.23z M676.41,467.32c-0.1,3.99-3.73,7.33-7.92,7.26
			c-4.48-0.07-7.26-4.4-7.2-11.2c0.04-4.78,2.81-7.71,7.21-7.62C673.73,455.87,676.59,460.05,676.41,467.32z M246.09,363.77
			c-6.22-6.58-9.12-14.87-11.45-23.29c-10.35-37.52,7.19-75.46,41.32-92.28c15.02-7.4,30.74-9.21,46.97-7.36
			c6.82,0.78,13.46,3.16,19.77,6.17c6.98,3.33,8.12,2.63,12.34-3.54c5.64-8.27,10.81-17.01,19.06-23.16c0,0,0.16-0.16,0.16-0.16
			c5.32-7.05,12.8-11.36,20.08-15.94c7.17-4.51,14.83-7.9,22.86-10.51c17.24-5.59,34.74-6.55,52.65-3.79
			c14.49,2.24,27.74,7.62,40.2,14.92c7.95,4.67,15.12,10.65,21.34,17.52c2.32,2.57,3.78,2.42,6.06,0.26
			c17.08-16.17,37.52-23.63,60.85-21.74c28.11,2.28,48.94,16.6,63.13,40.79c0.39,0.67,0.34,1.59,0.49,2.4
			c6.85,11.89,9.39,24.9,8.84,38.37c-0.86,21.18-9.17,39.22-24.5,53.99c-11.11,10.71-24.5,16.98-39.43,19.83
			c-4.43,0.85-5.92,2.83-6.08,6.78c-0.48,12.48-1.39,24.92-2.64,37.35c-1.01,10.1-1.72,20.23-2.45,30.36
			c-0.3,4.11-1.57,5.56-6.24,4.78c-15.22-2.52-30.55-1.33-45.83-0.21c-10.29,0.75-20.57,1.47-30.85,2.48
			c-22.17,2.2-44.22,5.22-66.2,8.76c-19.37,3.12-38.7,6.62-57.73,11.46c-11.89,3.03-23.95,5.62-34.98,11.36
			c-2.24,1.17-3.17,0.16-3.97-1.99c-7.22-19.22-14.54-38.4-21.84-57.59c-1.29-3.4-2.61-6.79-3.93-10.19
			c-0.93-2.4-2.8-3.12-5.19-2.88C288.24,399.85,264.3,388.13,246.09,363.77z M632.04,487.47c4.71-0.58,7.56,1.83,8.4,7.6
			c3.33,22.86,6.56,45.74,9.82,68.61c0.28,3.84,0.22,7.22-3.96,9.35c-3.02,1.55-5.33,0.61-7.88-0.8c-2.1-1.16-2.32-3.14-2.61-5.09
			c-2.21-15.31-4.4-30.61-6.55-45.93c-1.16-8.23-2.45-16.45-3.3-24.72C625.37,490.69,627.43,488.05,632.04,487.47z M622.02,469.49
			c-0.07-4.28,2.94-8.2,6.62-8.61c3.55-0.4,7.04,2.57,7.99,6.8c1.76,7.79-1.89,13.25-8.15,12.21
			C624.56,479.25,622.12,475.31,622.02,469.49z M554.83,582.2c1.2,9.39,2.7,18.75,3.95,28.13c0.93,7-2.03,10.67-7.91,10.19
			c-4.21-0.34-6.11-2.92-6.65-6.8c-3.46-24.84-6.89-49.69-10.34-74.53c-1.33-9.54-2.78-19.06-4.03-28.61
			c-0.69-5.27,1.17-8.67,5.55-9.73c4.28-1.04,7.01,1.46,8.45,5.16c1.58,4.06,3.15,1.49,4.63,0.18c9.48-8.4,20.38-11.89,33.04-10.23
			c17.8,2.34,33.08,16.63,36.31,34.3c3.45,18.84-4.14,36.45-20.16,46.82c-4.52,2.92-13.93,5.16-22.52,5.1
			c-4.97,0.48-10.51-1.13-15.91-3.45C554.61,576.74,554.16,577,554.83,582.2z M463.89,592.98c1.4,10.21,2.84,20.42,4.25,30.62
			c0.79,5.67-1.43,9.05-6.45,9.86c-3.98,0.64-7.27-2.22-8.05-7.53c-3.53-24.02-6.93-48.06-10.41-72.09
			c-1.5-10.37-3.08-20.73-4.58-31.1c-0.61-4.17,1.15-7.31,4.98-8.72c3.87-1.42,7.51-0.37,9.14,3.69c1.74,4.34,3.12,3.06,5.67,0.64
			c14.86-14.11,41.1-13.03,55.76,1.33c8.69,8.51,14.39,22.58,13.78,32.56c-0.11,30.95-31.96,53.03-60.74,38.21
			C463.88,588.74,463.52,590.26,463.89,592.98z M437.69,600.81c-3.59,3.99-9.21,3.28-11.33-1.96c-1.72-4.23-2.75-3.32-5.5-1.02
			c-13.33,11.14-28.13,13.88-44.13,6.4c-11.2-5.23-18.6-14.18-22.62-25.78c-1.57-4.54-2.63-9.3-2.16-14.27
			c0.36-16.91,7.57-30.27,22.33-38.5c11.61-6.47,24.1-6.65,36.24-0.49c2.93,1.49,4.46,1.48,4.88-2.37c0.44-4.05,3.4-6.36,7.21-6.18
			c3.95,0.19,6.65,2.68,7.25,6.97c1.3,9.39,2.72,18.77,4.01,28.16c1.86,13.5,3.6,27.02,5.48,40.51
			C439.78,595.39,439.88,598.38,437.69,600.81z M331.96,579.4c-1.01-6.36-0.98-12.95-3.44-19.02c-3.93-9.69-14.96-14.67-25.65-11.74
			c-12.18,3.34-18.28,12-16.62,23.5c2.02,13.98,3.97,27.97,5.66,39.83c0.49,9.09-2.26,12.58-7.74,12.03
			c-3.82-0.38-5.87-2.5-6.41-6.38c-2.75-19.58-5.58-39.15-8.42-58.71c-2.22-15.29-4.5-30.58-6.75-45.87
			c-0.76-5.17,1.69-8.84,6.37-9.53c4.72-0.7,8.14,2.46,8.84,7.87c1.17,9.06,2.58,18.09,3.73,27.16c0.46,3.64,1.39,4.07,4.55,1.91
			c14.49-9.93,30.87-10.21,44.79-0.69c9.08,6.21,13.16,15.5,14.61,26.09c1.72,12.52,3.36,25.05,5,37.58
			c0.22,1.65,0.38,3.31,0.4,4.97c0.05,4.37-2.32,6.83-6.49,7.44c-3.78,0.56-7.53-2.35-8.13-6.36
			C334.75,599.47,333.55,589.4,331.96,579.4z M677.08,671.33c-2.29,2.79-7.8,3.12-10.83,0.48c-2.09-1.82-4.33-3.32-6.73-4.7
			c-5.6-3.22-6.1-2.78-10.23,2.57c-7.43,9.64-16.57,17.49-26.98,23.91c-16.75,10.33-34.5,17.95-53.5,23.38
			c-35.94,10.27-72.51,15.55-109.77,15.87c-20.67,0.17-41.12-2.25-61.02-8.52c-13.05-4.11-24.96-10.13-35.51-18.79
			c-2.26-1.86-3.38-1.77-5.01,0.74c-2.16,3.33-4.74,6.4-7.33,9.43c-3.44,4.01-7.05,4.54-10.41,1.78c-2.88-2.37-2.99-7.21-0.36-10.76
			c9.13-12.38,18.25-24.76,27.3-37.19c3.36-4.62,7.41-6.21,10.91-3.98c4.74,3.02,5.47,7.03,1.85,12.35
			c-2.32,3.42-4.92,6.68-7.68,9.75c-2.84,3.17-2.1,5.24,1,7.75c11.9,9.68,25.74,14.87,40.45,18.39c15.49,3.7,31.2,4.74,47.26,4.87
			c32.72-0.19,65.15-4.49,96.92-13c20.7-5.55,40.52-13.54,58.52-25.46c9.61-6.37,18.01-13.98,24.39-23.73
			c1.44-2.2,1.94-3.36-0.71-5.1c-4.15-2.72-7.99-5.93-11.84-9.09c-3.98-3.26-4.61-6.99-2.02-10.38c2.86-3.73,6.08-4.28,10.39-1.12
			c13.32,9.77,26.54,19.67,39.72,29.62C678.82,662.61,679.3,668.62,677.08,671.33z M682.75,568.36c-4.05,0.3-7.52-2.75-8.3-7.59
			c-0.87-5.41-1.5-10.86-2.26-16.29c-2.42-17.44-4.8-34.89-7.29-52.32c-0.75-5.23,1.71-9.83,5.93-10.46
			c4.38-0.65,8.16,2.58,8.93,8.02c2.81,19.74,5.51,39.49,8.28,59.23c0.53,3.78,1.2,7.53,1.7,10.61
			C689.77,564.92,687.08,568.04,682.75,568.36z"/>
	</g>
</g>
</svg>
