<svg id="Laag_1" xmlns="http://www.w3.org/2000/svg" viewBox="0 0 946 927.06"><style>.st0{fill:#f1901a}</style><path class="st0" d="M485.86 580.26c14.45.06 27.12-12.43 27.18-26.78.07-17.28-11.74-30.34-27.51-30.41-15.4-.08-27.33 12.54-27.31 28.87.02 15.06 12.91 28.26 27.64 28.32zm-92.14-44.43c-15.33.43-26.54 11.98-26.95 27.93-.43 16.74 11.99 29.63 26.86 30.1 14.97.48 26.59-12.17 26.64-28.22 1.04-16.34-14.07-30.16-26.55-29.81zm183.18 32.05c15.48.54 27.07-14.62 27.01-28.71-.07-15.45-13.29-28.71-28.5-28.61-14.17.1-26.41 13.27-26.33 28.34.1 16.34 12.3 29.06 27.82 28.98z"/><path class="st0" d="M479.75 57.23c-231.36 0-418.92 187.55-418.92 418.92s187.55 418.92 418.92 418.92S898.66 707.5 898.66 476.14 711.11 57.23 479.75 57.23zm196.66 410.09c-.1 3.99-3.73 7.33-7.92 7.26-4.48-.07-7.26-4.4-7.2-11.2.04-4.78 2.81-7.71 7.21-7.62 5.23.11 8.09 4.29 7.91 11.56zM246.09 363.77c-6.22-6.58-9.12-14.87-11.45-23.29-10.35-37.52 7.19-75.46 41.32-92.28 15.02-7.4 30.74-9.21 46.97-7.36 6.82.78 13.46 3.16 19.77 6.17 6.98 3.33 8.12 2.63 12.34-3.54 5.64-8.27 10.81-17.01 19.06-23.16l.16-.16c5.32-7.05 12.8-11.36 20.08-15.94 7.17-4.51 14.83-7.9 22.86-10.51 17.24-5.59 34.74-6.55 52.65-3.79 14.49 2.24 27.74 7.62 40.2 14.92 7.95 4.67 15.12 10.65 21.34 17.52 2.32 2.57 3.78 2.42 6.06.26 17.08-16.17 37.52-23.63 60.85-21.74 28.11 2.28 48.94 16.6 63.13 40.79.39.67.34 1.59.49 2.4 6.85 11.89 9.39 24.9 8.84 38.37-.86 21.18-9.17 39.22-24.5 53.99-11.11 10.71-24.5 16.98-39.43 19.83-4.43.85-5.92 2.83-6.08 6.78-.48 12.48-1.39 24.92-2.64 37.35-1.01 10.1-1.72 20.23-2.45 30.36-.3 4.11-1.57 5.56-6.24 4.78-15.22-2.52-30.55-1.33-45.83-.21-10.29.75-20.57 1.47-30.85 2.48-22.17 2.2-44.22 5.22-66.2 8.76-19.37 3.12-38.7 6.62-57.73 11.46-11.89 3.03-23.95 5.62-34.98 11.36-2.24 1.17-3.17.16-3.97-1.99-7.22-19.22-14.54-38.4-21.84-57.59-1.29-3.4-2.61-6.79-3.93-10.19-.93-2.4-2.8-3.12-5.19-2.88-30.66 3.13-54.6-8.59-72.81-32.95zm385.95 123.7c4.71-.58 7.56 1.83 8.4 7.6 3.33 22.86 6.56 45.74 9.82 68.61.28 3.84.22 7.22-3.96 9.35-3.02 1.55-5.33.61-7.88-.8-2.1-1.16-2.32-3.14-2.61-5.09-2.21-15.31-4.4-30.61-6.55-45.93-1.16-8.23-2.45-16.45-3.3-24.72-.59-5.8 1.47-8.44 6.08-9.02zm-10.02-17.98c-.07-4.28 2.94-8.2 6.62-8.61 3.55-.4 7.04 2.57 7.99 6.8 1.76 7.79-1.89 13.25-8.15 12.21-3.92-.64-6.36-4.58-6.46-10.4zM554.83 582.2c1.2 9.39 2.7 18.75 3.95 28.13.93 7-2.03 10.67-7.91 10.19-4.21-.34-6.11-2.92-6.65-6.8-3.46-24.84-6.89-49.69-10.34-74.53-1.33-9.54-2.78-19.06-4.03-28.61-.69-5.27 1.17-8.67 5.55-9.73 4.28-1.04 7.01 1.46 8.45 5.16 1.58 4.06 3.15 1.49 4.63.18 9.48-8.4 20.38-11.89 33.04-10.23 17.8 2.34 33.08 16.63 36.31 34.3 3.45 18.84-4.14 36.45-20.16 46.82-4.52 2.92-13.93 5.16-22.52 5.1-4.97.48-10.51-1.13-15.91-3.45-4.63-1.99-5.08-1.73-4.41 3.47zm-90.94 10.78c1.4 10.21 2.84 20.42 4.25 30.62.79 5.67-1.43 9.05-6.45 9.86-3.98.64-7.27-2.22-8.05-7.53-3.53-24.02-6.93-48.06-10.41-72.09-1.5-10.37-3.08-20.73-4.58-31.1-.61-4.17 1.15-7.31 4.98-8.72 3.87-1.42 7.51-.37 9.14 3.69 1.74 4.34 3.12 3.06 5.67.64 14.86-14.11 41.1-13.03 55.76 1.33 8.69 8.51 14.39 22.58 13.78 32.56-.11 30.95-31.96 53.03-60.74 38.21-3.36-1.71-3.72-.19-3.35 2.53zm-26.2 7.83c-3.59 3.99-9.21 3.28-11.33-1.96-1.72-4.23-2.75-3.32-5.5-1.02-13.33 11.14-28.13 13.88-44.13 6.4-11.2-5.23-18.6-14.18-22.62-25.78-1.57-4.54-2.63-9.3-2.16-14.27.36-16.91 7.57-30.27 22.33-38.5 11.61-6.47 24.1-6.65 36.24-.49 2.93 1.49 4.46 1.48 4.88-2.37.44-4.05 3.4-6.36 7.21-6.18 3.95.19 6.65 2.68 7.25 6.97 1.3 9.39 2.72 18.77 4.01 28.16 1.86 13.5 3.6 27.02 5.48 40.51.43 3.11.53 6.1-1.66 8.53zM331.96 579.4c-1.01-6.36-.98-12.95-3.44-19.02-3.93-9.69-14.96-14.67-25.65-11.74-12.18 3.34-18.28 12-16.62 23.5 2.02 13.98 3.97 27.97 5.66 39.83.49 9.09-2.26 12.58-7.74 12.03-3.82-.38-5.87-2.5-6.41-6.38-2.75-19.58-5.58-39.15-8.42-58.71-2.22-15.29-4.5-30.58-6.75-45.87-.76-5.17 1.69-8.84 6.37-9.53 4.72-.7 8.14 2.46 8.84 7.87 1.17 9.06 2.58 18.09 3.73 27.16.46 3.64 1.39 4.07 4.55 1.91 14.49-9.93 30.87-10.21 44.79-.69 9.08 6.21 13.16 15.5 14.61 26.09 1.72 12.52 3.36 25.05 5 37.58.22 1.65.38 3.31.4 4.97.05 4.37-2.32 6.83-6.49 7.44-3.78.56-7.53-2.35-8.13-6.36-1.51-10.01-2.71-20.08-4.3-30.08zm345.12 91.93c-2.29 2.79-7.8 3.12-10.83.48-2.09-1.82-4.33-3.32-6.73-4.7-5.6-3.22-6.1-2.78-10.23 2.57-7.43 9.64-16.57 17.49-26.98 23.91-16.75 10.33-34.5 17.95-53.5 23.38-35.94 10.27-72.51 15.55-109.77 15.87-20.67.17-41.12-2.25-61.02-8.52-13.05-4.11-24.96-10.13-35.51-18.79-2.26-1.86-3.38-1.77-5.01.74-2.16 3.33-4.74 6.4-7.33 9.43-3.44 4.01-7.05 4.54-10.41 1.78-2.88-2.37-2.99-7.21-.36-10.76 9.13-12.38 18.25-24.76 27.3-37.19 3.36-4.62 7.41-6.21 10.91-3.98 4.74 3.02 5.47 7.03 1.85 12.35-2.32 3.42-4.92 6.68-7.68 9.75-2.84 3.17-2.1 5.24 1 7.75 11.9 9.68 25.74 14.87 40.45 18.39 15.49 3.7 31.2 4.74 47.26 4.87 32.72-.19 65.15-4.49 96.92-13 20.7-5.55 40.52-13.54 58.52-25.46 9.61-6.37 18.01-13.98 24.39-23.73 1.44-2.2 1.94-3.36-.71-5.1-4.15-2.72-7.99-5.93-11.84-9.09-3.98-3.26-4.61-6.99-2.02-10.38 2.86-3.73 6.08-4.28 10.39-1.12 13.32 9.77 26.54 19.67 39.72 29.62 2.96 2.21 3.44 8.22 1.22 10.93zm5.67-102.97c-4.05.3-7.52-2.75-8.3-7.59-.87-5.41-1.5-10.86-2.26-16.29-2.42-17.44-4.8-34.89-7.29-52.32-.75-5.23 1.71-9.83 5.93-10.46 4.38-.65 8.16 2.58 8.93 8.02 2.81 19.74 5.51 39.49 8.28 59.23.53 3.78 1.2 7.53 1.7 10.61.03 5.36-2.66 8.48-6.99 8.8z"/></svg>