<?xml version="1.0" encoding="utf-8"?>
<!-- Generator: Adobe Illustrator 23.0.1, SVG Export Plug-In . SVG Version: 6.00 Build 0)  -->
<svg version="1.1" id="Layer_1" xmlns="http://www.w3.org/2000/svg" xmlns:xlink="http://www.w3.org/1999/xlink" x="0px" y="0px"
	 viewBox="0 0 274.26 274.25" style="enable-background:new 0 0 274.26 274.25;" xml:space="preserve">
<style type="text/css">
	.st0{fill:#FFFFFF;}
</style>
<g>
	<path d="M274.26,137.12c0,75.73-61.39,137.13-137.13,137.13C61.4,274.25,0,212.85,0,137.12C0,61.39,61.4,0,137.13,0
		C212.87,0,274.26,61.39,274.26,137.12z"/>
	<g>
		<path class="st0" d="M137.13,263.78c-69.84,0-126.65-56.82-126.65-126.65c0-69.83,56.82-126.65,126.65-126.65
			c69.84,0,126.65,56.81,126.65,126.65C263.78,206.96,206.97,263.78,137.13,263.78z M137.13,11.48
			c-69.29,0-125.65,56.37-125.65,125.65c0,69.29,56.37,125.65,125.65,125.65c69.29,0,125.65-56.37,125.65-125.65
			C262.78,67.84,206.41,11.48,137.13,11.48z"/>
	</g>
	<g>
		<path class="st0" d="M87.08,209.35h3.75c2.93,0,4.4,1.82,4.4,5.47c0,1.39-0.19,2.43-0.57,3.1c-0.38,0.67-1.06,1.18-2.02,1.53
			c1.11,0.44,1.87,1.01,2.27,1.7c0.42,0.68,0.62,1.71,0.62,3.09c0,3.77-1.61,5.65-4.84,5.65h-3.62V209.35z M89.67,218.4
			c1.08,0,1.83-0.25,2.24-0.75c0.42-0.52,0.63-1.44,0.63-2.75c0-2.22-0.8-3.33-2.41-3.33h-0.21H89.8c-0.07,0-0.12,0-0.13,0.01V218.4
			z M89.67,227.52c1.14,0,1.93-0.24,2.36-0.73c0.44-0.49,0.65-1.37,0.65-2.65c0-1.31-0.23-2.23-0.68-2.75
			c-0.45-0.53-1.23-0.8-2.34-0.8V227.52z"/>
		<path class="st0" d="M101.29,209.35h2.15l4.4,20.54h-2.74l-0.77-4h-4.07l-0.78,4h-2.66L101.29,209.35z M103.94,223.74l-0.61-3.27
			c-0.41-2.23-0.74-4.6-1-7.13c-0.12,1.23-0.28,2.48-0.48,3.74c-0.2,1.26-0.43,2.61-0.69,4.02l-0.51,2.63H103.94z"/>
		<path class="st0" d="M109.47,209.35h3.64c1.51,0,2.63,0.36,3.36,1.08c0.93,0.93,1.4,2.35,1.4,4.27c0,1.47-0.25,2.65-0.74,3.54
			c-0.49,0.89-1.19,1.44-2.11,1.66l3.78,9.99H116l-3.76-10.05v10.05h-2.77V209.35z M112.24,218.45c1.07,0,1.83-0.25,2.27-0.74
			c0.44-0.5,0.67-1.33,0.67-2.51c0-0.64-0.05-1.18-0.14-1.64c-0.09-0.45-0.24-0.82-0.44-1.1c-0.2-0.28-0.46-0.49-0.77-0.62
			c-0.31-0.13-0.69-0.2-1.12-0.2h-0.47V218.45z"/>
		<path class="st0" d="M136.71,219.74l-2.68,2.68l-2.68-2.68l2.68-2.68L136.71,219.74z"/>
		<path class="st0" d="M156.73,209.68v2.49c-0.71-0.35-1.3-0.52-1.78-0.52c-0.66,0-1.22,0.16-1.69,0.49
			c-0.47,0.32-0.86,0.82-1.16,1.5c-0.31,0.67-0.53,1.53-0.68,2.56s-0.22,2.25-0.22,3.66c0,5.07,1.3,7.61,3.9,7.61
			c0.45,0,1-0.14,1.64-0.43v2.54c-0.67,0.37-1.41,0.56-2.23,0.56c-4.16,0-6.24-3.4-6.24-10.19c0-3.67,0.51-6.4,1.52-8.19
			c1.01-1.79,2.57-2.69,4.66-2.69C155.22,209.07,155.98,209.28,156.73,209.68z"/>
		<path class="st0" d="M162.75,209.35h2.15l4.4,20.54h-2.74l-0.77-4h-4.07l-0.78,4h-2.66L162.75,209.35z M165.39,223.74l-0.61-3.27
			c-0.41-2.23-0.74-4.6-1-7.13c-0.12,1.23-0.28,2.48-0.48,3.74c-0.2,1.26-0.43,2.61-0.69,4.02l-0.51,2.63H165.39z"/>
		<path class="st0" d="M170.93,209.35h7.39v2.34h-4.63v6.49h4.18v2.34h-4.18v9.36h-2.77V209.35z"/>
		<path class="st0" d="M180.45,209.35h7.35v2.34h-4.59v6.5h4.07v2.34h-4.07v7.01h4.59v2.34h-7.35V209.35z M185.55,203.58l1.45,1.6
			l-3.33,2.33l-0.98-1.13L185.55,203.58z"/>
	</g>
	<g>
		<g>
			<path class="st0" d="M79.91,87.52V60.59l4.49-4.49l4.49,4.49v22.48v8.98v17.99l-8.98,8.98H70.9l-8.98-8.98V92.05l-4.49-4.49
				l4.49-4.49V60.59l4.49-4.49l4.49,4.49v26.93v0.07v17.96l4.53,4.49l4.49-4.49V87.59V87.52z"/>
			<path class="st0" d="M106.85,60.59v8.98v13.5v8.98v22.48l-4.49,4.49l-4.49-4.49V92.05v-8.98v-13.5v-8.98l4.49-4.49L106.85,60.59z
				"/>
			<path class="st0" d="M147.36,114.53l-4.49,4.49H129.4c-5.62,0-9.56-2.25-11.81-6.73c-1.13-2.26-1.69-4.5-1.69-6.73V92.05v-8.98
				V60.59l4.49-4.49l4.49,4.49v22.48v8.98v13.51c0,0.73,0.19,1.48,0.59,2.24c0.74,1.5,2.05,2.24,3.94,2.24h13.47L147.36,114.53z"/>
			<path class="st0" d="M183.31,114.53l-4.49,4.49h-13.47c-5.62,0-9.56-2.25-11.81-6.73c-1.13-2.26-1.69-4.5-1.69-6.73V92.05v-8.98
				V60.59l4.49-4.49l4.49,4.49v22.48v8.98v13.51c0,0.73,0.2,1.48,0.59,2.24c0.74,1.5,2.05,2.24,3.94,2.24h13.47L183.31,114.53z"/>
			<path class="st0" d="M219.26,87.56l-4.49,4.49v22.48l-4.49,4.49l-4.49-4.49V92.05h-9.02v22.48l-4.49,4.49l-4.49-4.49V92.05v-8.98
				v-13.5c0-2.23,0.56-4.48,1.69-6.73c2.26-4.49,6.19-6.73,11.81-6.73c5.62,0,9.54,2.25,11.77,6.73c1.13,2.26,1.69,4.5,1.69,6.73
				v13.5L219.26,87.56z M205.79,83.07v-13.5c0-0.73-0.2-1.48-0.59-2.25c-0.74-1.49-2.04-2.24-3.9-2.24c-1.89,0-3.2,0.75-3.94,2.24
				c-0.39,0.76-0.59,1.51-0.59,2.25v13.5H205.79z"/>
			<path class="st0" d="M87.66,133.42v8.98v13.5v8.98v22.48l-4.49,4.49l-4.49-4.49v-22.48v-8.98v-13.5v-8.98l4.49-4.49L87.66,133.42
				z"/>
			<path class="st0" d="M106.9,164.88v13.51c0,0.74,0.2,1.48,0.59,2.25c0.74,1.5,2.05,2.24,3.94,2.24c1.86,0,3.17-0.75,3.9-2.24
				c0.39-0.76,0.59-1.51,0.59-2.25v-4.52l4.49-4.49l4.49,4.49v4.52c0,2.23-0.57,4.48-1.7,6.73c-2.23,4.49-6.16,6.73-11.77,6.73
				c-5.62,0-9.55-2.25-11.81-6.73c-1.13-2.26-1.69-4.5-1.69-6.73v-13.51v-8.98v-13.5c0-2.24,0.56-4.48,1.69-6.73
				c2.25-4.49,6.19-6.73,11.81-6.73c5.62,0,9.54,2.24,11.77,6.73c1.13,2.26,1.7,4.5,1.7,6.73v13.5v8.98H106.9z M106.9,155.9h9.01
				v-13.5c0-0.74-0.2-1.49-0.59-2.25c-0.73-1.5-2.04-2.24-3.9-2.24c-1.89,0-3.2,0.75-3.94,2.24c-0.39,0.76-0.59,1.51-0.59,2.25
				V155.9z"/>
			<path class="st0" d="M162.06,164.88v13.51c0,2.23-0.57,4.48-1.69,6.73c-2.24,4.49-6.16,6.73-11.78,6.73
				c-5.62,0-9.56-2.25-11.81-6.73c-1.13-2.26-1.69-4.5-1.69-6.73v-4.52l4.49-4.49l4.49,4.49v4.52c0,0.74,0.2,1.48,0.59,2.25
				c0.74,1.5,2.05,2.24,3.94,2.24c1.86,0,3.17-0.75,3.9-2.24c0.39-0.76,0.59-1.51,0.59-2.25v-13.51h-18v-8.98v-13.5
				c0-2.24,0.57-4.48,1.69-6.73c2.26-4.49,6.19-6.73,11.81-6.73c5.62,0,9.54,2.24,11.78,6.73c1.13,2.26,1.69,4.5,1.69,6.73v4.52
				l-4.49,4.49l-4.49-4.49v-4.52c0-0.74-0.2-1.49-0.59-2.25c-0.74-1.5-2.04-2.24-3.9-2.24c-1.89,0-3.2,0.75-3.94,2.24
				c-0.39,0.76-0.59,1.51-0.59,2.25v13.5h18V164.88z"/>
			<path class="st0" d="M196.8,128.93l4.49,4.49v4.49l-4.49,4.49l-4.49-4.49h-4.49v17.99v8.98v22.48l-4.49,4.49l-4.52-4.49v-22.48
				v-8.98V137.9h-4.49l-4.49,4.49l-4.49-4.49v-4.49l4.49-4.49H196.8z"/>
			<path class="st0" d="M237.24,160.39l-4.49,4.49v22.48l-4.49,4.49l-4.49-4.49v-22.48h-9.02v22.48l-4.49,4.49l-4.49-4.49v-22.48
				v-8.98v-13.5c0-2.24,0.56-4.48,1.69-6.73c2.26-4.49,6.19-6.73,11.81-6.73c5.62,0,9.54,2.24,11.77,6.73
				c1.13,2.26,1.69,4.5,1.69,6.73v13.5L237.24,160.39z M223.77,155.9v-13.5c0-0.74-0.2-1.49-0.59-2.25c-0.74-1.5-2.04-2.24-3.9-2.24
				c-1.89,0-3.2,0.75-3.94,2.24c-0.39,0.76-0.59,1.51-0.59,2.25v13.5H223.77z"/>
		</g>
		<g>
			<path class="st0" d="M55.02,137.9c-1.89,0-3.2,0.75-3.94,2.24c-0.39,0.76-0.59,1.51-0.59,2.25v13.5h18l4.49,4.49l-4.49,4.49h-18
				v22.48L46,191.85l-4.49-4.49v-22.48l-4.49-4.49l4.49-4.49v-13.5c0-2.24,0.56-4.48,1.69-6.73c2.26-4.49,6.19-6.73,11.81-6.73"/>
			<polygon class="st0" points="54.57,128.93 69.87,128.93 74.35,133.42 74.35,137.9 69.87,142.4 65.37,137.9 54.96,137.9 			"/>
		</g>
	</g>
</g>
</svg>
